<svg width="546" height="449" viewBox="0 0 546 449" fill="none" xmlns="http://www.w3.org/2000/svg">
<path opacity="0.2" d="M495.22 250.674V385.068C495.22 397.137 485.436 406.921 473.367 406.921H176.171C164.102 406.921 154.318 397.137 154.318 385.068V340.27" stroke="#6DBC00" stroke-width="2.18526" stroke-linecap="round" stroke-linejoin="round" stroke-dasharray="4.37 4.37"/>
<rect opacity="0.9" width="26.2232" height="26.2232" rx="8.74105" transform="matrix(-0.866026 -0.5 -0.5 0.866025 484.24 401.79)" fill="#6DBC00"/>
<rect opacity="0.7" width="15.4133" height="15.4133" rx="4.37053" transform="matrix(-0.918718 0.394914 0.394915 0.918718 407.619 397.386)" fill="#6DBC00"/>
<rect opacity="0.5" width="9.60149" height="9.60148" rx="3.37" transform="matrix(-0.97545 -0.22022 -0.220219 0.97545 359.34 403.701)" fill="#6DBC00"/>
<path opacity="0.2" d="M496.313 258.323V144.689C496.313 132.621 486.529 122.837 474.46 122.837H326.955" stroke="#FF8800" stroke-width="2.18526" stroke-linecap="round" stroke-linejoin="round" stroke-dasharray="4.37 4.37"/>
<rect opacity="0.7" x="508.026" y="165.854" width="16.6717" height="16.6717" rx="8.33586" transform="rotate(150 508.026 165.854)" fill="#FF8800"/>
<g filter="url(#filter0_d_3097_35726)">
<mask id="mask0_3097_35726" style="mask-type:alpha" maskUnits="userSpaceOnUse" x="49" y="48" width="427" height="329">
<rect x="49.4277" y="48.538" width="426.126" height="327.789" rx="17.4821" fill="white"/>
</mask>
<g mask="url(#mask0_3097_35726)">
<rect x="50.5204" y="49.6307" width="467.647" height="325.604" rx="16.3895" fill="white" stroke="white" stroke-width="2.18526"/>
</g>
<rect x="66.9102" y="214.896" width="8.74106" height="10.9263" rx="2.18526" fill="#D7D7D7"/>
<rect x="80.0215" y="221.452" width="21.8526" height="2.18526" rx="1.09263" fill="#D7D7D7"/>
<rect x="80.0215" y="217.081" width="13.1116" height="2.18526" rx="1.09263" fill="#D7D7D7"/>
<rect x="145.58" y="214.896" width="8.74106" height="10.9263" rx="2.18526" fill="#D7D7D7"/>
<rect x="158.693" y="221.452" width="21.8526" height="2.18526" rx="1.09263" fill="#D7D7D7"/>
<rect x="158.693" y="217.081" width="13.1116" height="2.18526" rx="1.09263" fill="#D7D7D7"/>
<rect x="224.25" y="214.896" width="8.74106" height="10.9263" rx="2.18526" fill="#D7D7D7"/>
<rect x="237.361" y="221.452" width="21.8526" height="2.18526" rx="1.09263" fill="#D7D7D7"/>
<rect x="237.361" y="217.081" width="13.1116" height="2.18526" rx="1.09263" fill="#D7D7D7"/>
<rect x="302.92" y="214.896" width="8.74106" height="10.9263" rx="2.18526" fill="#D7D7D7"/>
<rect x="316.031" y="221.452" width="21.8526" height="2.18526" rx="1.09263" fill="#D7D7D7"/>
<rect x="316.031" y="217.081" width="13.1116" height="2.18526" rx="1.09263" fill="#D7D7D7"/>
<rect x="381.59" y="214.896" width="8.74106" height="10.9263" rx="2.18526" fill="#D7D7D7"/>
<rect x="394.701" y="221.452" width="21.8526" height="2.18526" rx="1.09263" fill="#D7D7D7"/>
<rect x="394.701" y="217.081" width="13.1116" height="2.18526" rx="1.09263" fill="#D7D7D7"/>
<rect x="66.9102" y="234.563" width="382.421" height="0.546315" fill="#E7E7E7"/>
<rect x="66.9102" y="206.155" width="382.421" height="0.546315" fill="#E7E7E7"/>
<mask id="path-26-inside-1_3097_35726" fill="white">
<path d="M66.9102 287.824H449.331V307.491H66.9102V287.824Z"/>
</mask>
<path d="M66.9102 287.824H449.331V307.491H66.9102V287.824Z" fill="white"/>
<path d="M449.331 306.945H66.9102V308.038H449.331V306.945Z" fill="#E7E7E7" mask="url(#path-26-inside-1_3097_35726)"/>
<rect x="89.3125" y="294.926" width="0.546316" height="8.74105" rx="0.273158" fill="#D9D9D9"/>
<path d="M99.1918 301.565V296.827H100.139V299.126L101.951 296.827H102.771L101.128 298.953L103.168 301.565H101.935L100.139 299.235V301.565H99.1918ZM106.708 301.447C106.258 301.579 105.831 301.645 105.427 301.645C104.841 301.645 104.378 301.479 104.038 301.146C103.699 300.813 103.529 300.358 103.529 299.782C103.529 299.238 103.684 298.8 103.993 298.47C104.305 298.137 104.716 297.97 105.226 297.97C105.74 297.97 106.116 298.132 106.353 298.457C106.589 298.781 106.708 299.294 106.708 299.997H104.528C104.592 300.667 104.96 301.002 105.632 301.002C105.95 301.002 106.309 300.928 106.708 300.781V301.447ZM104.515 299.462H105.776C105.776 298.862 105.583 298.562 105.197 298.562C104.804 298.562 104.577 298.862 104.515 299.462ZM107.7 302.829L108.497 301.565L107.194 298.05H108.212L109.083 300.4L110.117 298.05H110.837L108.667 302.829H107.7ZM112.131 301.565L111.154 298.05H112.034L112.726 300.512L113.462 298.05H114.282L114.944 300.525L115.69 298.05H116.35L115.306 301.565H114.397L113.757 299.155L113.04 301.565H112.131ZM118.645 301.645C118.096 301.645 117.66 301.48 117.335 301.149C117.013 300.816 116.852 300.369 116.852 299.808C116.852 299.24 117.014 298.792 117.339 298.463C117.665 298.135 118.108 297.97 118.667 297.97C119.228 297.97 119.671 298.135 119.996 298.463C120.322 298.792 120.485 299.238 120.485 299.801C120.485 300.377 120.322 300.829 119.996 301.155C119.669 301.482 119.219 301.645 118.645 301.645ZM118.661 301.053C118.917 301.053 119.116 300.943 119.259 300.723C119.404 300.501 119.477 300.194 119.477 299.801C119.477 299.419 119.404 299.117 119.259 298.895C119.116 298.673 118.919 298.562 118.667 298.562C118.417 298.562 118.22 298.673 118.075 298.895C117.932 299.117 117.86 299.421 117.86 299.808C117.86 300.19 117.932 300.493 118.075 300.717C118.218 300.941 118.413 301.053 118.661 301.053ZM121.356 301.565V298.05H122.304V298.713C122.549 298.218 122.922 297.97 123.424 297.97C123.484 297.97 123.542 297.977 123.6 297.989V298.835C123.466 298.785 123.341 298.761 123.225 298.761C122.848 298.761 122.54 298.952 122.304 299.334V301.565H121.356ZM126.551 301.565V300.902C126.308 301.398 125.925 301.645 125.402 301.645C124.98 301.645 124.648 301.49 124.407 301.181C124.165 300.871 124.045 300.446 124.045 299.904C124.045 299.315 124.18 298.845 124.451 298.495C124.725 298.145 125.091 297.97 125.549 297.97C125.916 297.97 126.25 298.115 126.551 298.406V296.511H127.502V301.565H126.551ZM126.551 298.969C126.323 298.713 126.079 298.585 125.818 298.585C125.586 298.585 125.4 298.697 125.261 298.921C125.123 299.145 125.053 299.446 125.053 299.824C125.053 300.543 125.284 300.902 125.745 300.902C126.026 300.902 126.295 300.722 126.551 300.361V298.969Z" fill="#303030"/>
<path d="M76.2426 301.565L76.5851 300.202H75.708L75.8008 299.728H76.7035L76.9692 298.662H76.0153L76.1081 298.188H77.0877L77.4302 296.828H77.9167L77.5774 298.188H78.4161L78.7554 296.828H79.2452L78.9059 298.188H79.7798L79.6869 298.662H78.7874L78.5185 299.728H79.4757L79.3796 300.202H78.4001L78.0608 301.565H77.571L77.9135 300.202H77.0717L76.7324 301.565H76.2426ZM77.1901 299.728H78.032L78.2977 298.662H77.459L77.1901 299.728Z" fill="#303030"/>
<rect x="206.221" y="294.926" width="0.546316" height="8.74105" rx="0.273158" fill="#D9D9D9"/>
<path d="M219.884 301.453C219.29 301.607 218.778 301.684 218.347 301.684C217.53 301.684 216.901 301.469 216.462 301.04C216.024 300.609 215.806 299.992 215.806 299.19C215.806 298.394 216.024 297.781 216.462 297.353C216.901 296.924 217.527 296.709 218.338 296.709C218.856 296.709 219.37 296.77 219.88 296.892V297.663C219.289 297.46 218.804 297.359 218.424 297.359C217.922 297.359 217.535 297.519 217.262 297.839C216.989 298.159 216.852 298.613 216.852 299.2C216.852 299.767 216.998 300.213 217.291 300.538C217.583 300.86 217.987 301.021 218.501 301.021C218.614 301.021 218.746 301.005 218.898 300.973V299.414H219.884V301.453ZM222.467 301.645C221.918 301.645 221.482 301.48 221.158 301.149C220.835 300.816 220.674 300.369 220.674 299.808C220.674 299.24 220.837 298.792 221.161 298.463C221.487 298.135 221.93 297.97 222.489 297.97C223.051 297.97 223.493 298.135 223.818 298.463C224.144 298.792 224.308 299.238 224.308 299.801C224.308 300.378 224.144 300.829 223.818 301.155C223.491 301.482 223.041 301.645 222.467 301.645ZM222.483 301.053C222.739 301.053 222.939 300.943 223.082 300.723C223.227 300.501 223.299 300.194 223.299 299.801C223.299 299.419 223.227 299.117 223.082 298.895C222.939 298.674 222.741 298.563 222.489 298.563C222.24 298.563 222.042 298.674 221.897 298.895C221.754 299.117 221.683 299.422 221.683 299.808C221.683 300.19 221.754 300.493 221.897 300.717C222.04 300.941 222.235 301.053 222.483 301.053ZM226.654 301.645C226.105 301.645 225.669 301.48 225.345 301.149C225.022 300.816 224.861 300.369 224.861 299.808C224.861 299.24 225.024 298.792 225.348 298.463C225.674 298.135 226.117 297.97 226.676 297.97C227.238 297.97 227.68 298.135 228.005 298.463C228.331 298.792 228.495 299.238 228.495 299.801C228.495 300.378 228.331 300.829 228.005 301.155C227.678 301.482 227.228 301.645 226.654 301.645ZM226.67 301.053C226.926 301.053 227.126 300.943 227.269 300.723C227.414 300.501 227.486 300.194 227.486 299.801C227.486 299.419 227.414 299.117 227.269 298.895C227.126 298.674 226.928 298.563 226.676 298.563C226.427 298.563 226.229 298.674 226.084 298.895C225.941 299.117 225.87 299.422 225.87 299.808C225.87 300.19 225.941 300.493 226.084 300.717C226.227 300.941 226.422 301.053 226.67 301.053ZM229.391 302.657L229.468 301.968C229.858 302.148 230.231 302.237 230.585 302.237C230.935 302.237 231.188 302.163 231.343 302.013C231.499 301.864 231.577 301.622 231.577 301.287V300.807C231.347 301.312 230.966 301.565 230.434 301.565C230.016 301.565 229.684 301.409 229.439 301.098C229.193 300.784 229.071 300.36 229.071 299.827C229.071 299.266 229.208 298.817 229.484 298.479C229.759 298.14 230.125 297.97 230.582 297.97C230.94 297.97 231.272 298.115 231.577 298.406L231.676 298.05H232.528V300.733C232.528 301.269 232.495 301.655 232.429 301.892C232.365 302.129 232.239 302.33 232.051 302.497C231.735 302.77 231.29 302.906 230.716 302.906C230.308 302.906 229.867 302.823 229.391 302.657ZM231.577 300.256V298.959C231.349 298.701 231.11 298.572 230.86 298.572C230.621 298.572 230.431 298.681 230.29 298.899C230.15 299.116 230.079 299.409 230.079 299.776C230.079 300.463 230.3 300.807 230.742 300.807C231.047 300.807 231.325 300.623 231.577 300.256ZM233.693 301.565V296.511H234.641V301.565H233.693ZM238.687 301.447C238.236 301.579 237.81 301.645 237.406 301.645C236.819 301.645 236.356 301.479 236.017 301.146C235.678 300.813 235.508 300.358 235.508 299.782C235.508 299.238 235.663 298.8 235.972 298.47C236.284 298.137 236.695 297.97 237.205 297.97C237.719 297.97 238.095 298.133 238.331 298.457C238.568 298.781 238.687 299.295 238.687 299.997H236.507C236.571 300.667 236.939 301.002 237.611 301.002C237.929 301.002 238.288 300.928 238.687 300.781V301.447ZM236.494 299.462H237.755C237.755 298.862 237.562 298.563 237.176 298.563C236.783 298.563 236.556 298.862 236.494 299.462ZM241.76 301.565V296.828H243.533C244.003 296.828 244.36 296.928 244.606 297.128C244.853 297.327 244.977 297.618 244.977 298.002C244.977 298.295 244.895 298.561 244.73 298.803C244.568 299.042 244.344 299.225 244.058 299.353L245.607 301.565H244.407L243.232 299.629H242.688V301.565H241.76ZM242.688 298.979H242.915C243.63 298.979 243.988 298.69 243.988 298.111C243.988 297.689 243.669 297.477 243.031 297.477H242.688V298.979ZM248.008 301.187C247.692 301.493 247.354 301.645 246.994 301.645C246.686 301.645 246.437 301.551 246.244 301.363C246.052 301.176 245.956 300.932 245.956 300.634C245.956 300.245 246.111 299.946 246.421 299.737C246.732 299.526 247.177 299.42 247.755 299.42H248.008V299.1C248.008 298.735 247.8 298.553 247.384 298.553C247.015 298.553 246.641 298.658 246.264 298.867V298.214C246.693 298.051 247.117 297.97 247.538 297.97C248.457 297.97 248.917 298.336 248.917 299.068V300.624C248.917 300.899 249.002 301.037 249.17 301.037C249.209 301.037 249.262 301.025 249.33 301.002V301.556C249.13 301.615 248.953 301.645 248.799 301.645C248.411 301.645 248.161 301.493 248.05 301.187H248.008ZM248.008 300.678V299.965H247.784C247.498 299.965 247.273 300.016 247.109 300.118C246.947 300.221 246.865 300.362 246.865 300.541C246.865 300.671 246.909 300.781 246.997 300.871C247.086 300.958 247.196 301.002 247.326 301.002C247.548 301.002 247.776 300.894 248.008 300.678ZM250.14 301.565V298.05H251.088V298.713C251.397 298.218 251.796 297.97 252.285 297.97C252.599 297.97 252.846 298.07 253.028 298.268C253.209 298.467 253.3 298.738 253.3 299.081V301.565H252.352V299.315C252.352 298.916 252.22 298.716 251.955 298.716C251.654 298.716 251.365 298.929 251.088 299.353V301.565H250.14ZM254.449 301.565V296.511H255.396V299.689H255.457L256.709 298.05H257.496L256.341 299.555L257.858 301.565H256.706L255.457 299.808H255.396V301.565H254.449Z" fill="#303030"/>
<rect x="396.339" y="294.926" width="0.546316" height="8.74105" rx="0.273158" fill="#D9D9D9"/>
<path d="M407.458 300.473L405.707 295.735H406.76L408.117 299.4L409.43 295.735H410.14L408.447 300.473H407.458ZM410.803 300.473V296.958H411.751V300.473H410.803ZM410.803 296.366V295.575H411.751V296.366H410.803ZM412.842 300.361V299.666C413.312 299.862 413.713 299.96 414.046 299.96C414.434 299.96 414.628 299.828 414.628 299.563C414.628 299.393 414.468 299.243 414.148 299.115L413.828 298.987C413.48 298.846 413.232 298.695 413.082 298.533C412.933 298.371 412.858 298.17 412.858 297.931C412.858 297.598 412.985 297.34 413.239 297.156C413.493 296.971 413.848 296.878 414.305 296.878C414.591 296.878 414.931 296.919 415.326 297.003V297.668C414.946 297.536 414.632 297.47 414.382 297.47C413.989 297.47 413.793 297.592 413.793 297.835C413.793 297.995 413.938 298.13 414.228 298.241L414.504 298.347C414.915 298.503 415.201 298.661 415.361 298.821C415.524 298.981 415.605 299.187 415.605 299.439C415.605 299.769 415.467 300.038 415.192 300.245C414.919 300.45 414.562 300.553 414.123 300.553C413.7 300.553 413.273 300.489 412.842 300.361ZM416.642 300.473V296.958H417.589V300.473H416.642ZM416.642 296.366V295.575H417.589V296.366H416.642ZM418.774 300.473V295.418H419.721V297.62C419.965 297.125 420.348 296.878 420.87 296.878C421.293 296.878 421.625 297.033 421.866 297.342C422.109 297.651 422.231 298.077 422.231 298.619C422.231 299.206 422.094 299.676 421.821 300.028C421.548 300.378 421.183 300.553 420.726 300.553C420.334 300.553 419.999 300.408 419.721 300.117L419.545 300.473H418.774ZM419.721 299.554C419.952 299.81 420.197 299.938 420.458 299.938C420.69 299.938 420.876 299.826 421.014 299.602C421.153 299.376 421.223 299.075 421.223 298.699C421.223 297.98 420.991 297.62 420.528 297.62C420.248 297.62 419.979 297.801 419.721 298.161V299.554ZM423.121 300.473V296.958H424.068V300.473H423.121ZM423.121 296.366V295.575H424.068V296.366H423.121ZM425.253 300.473V295.418H426.2V300.473H425.253ZM427.385 300.473V296.958H428.332V300.473H427.385ZM427.385 296.366V295.575H428.332V296.366H427.385ZM431.328 300.453C431.102 300.52 430.924 300.553 430.794 300.553C430.365 300.553 430.052 300.461 429.856 300.277C429.66 300.094 429.561 299.801 429.561 299.4V297.55H429.168V296.958H429.561V296.366L430.509 296.257V296.958H431.261V297.55H430.509V299.275C430.509 299.706 430.685 299.922 431.037 299.922C431.118 299.922 431.215 299.907 431.328 299.877V300.453ZM432.186 301.737L432.983 300.473L431.68 296.958H432.698L433.569 299.307L434.603 296.958H435.323L433.153 301.737H432.186Z" fill="#303030"/>
<rect x="301.279" y="294.926" width="0.546316" height="8.74105" rx="0.273158" fill="#D9D9D9"/>
<path d="M314.942 300.36C314.349 300.514 313.837 300.591 313.406 300.591C312.588 300.591 311.96 300.376 311.52 299.947C311.083 299.516 310.864 298.9 310.864 298.097C310.864 297.301 311.083 296.689 311.52 296.26C311.96 295.831 312.585 295.616 313.396 295.616C313.915 295.616 314.429 295.677 314.939 295.799V296.57C314.348 296.368 313.862 296.266 313.483 296.266C312.981 296.266 312.594 296.426 312.321 296.746C312.047 297.067 311.911 297.52 311.911 298.107C311.911 298.675 312.057 299.121 312.349 299.445C312.642 299.767 313.045 299.928 313.559 299.928C313.673 299.928 313.805 299.912 313.956 299.88V298.321H314.942V300.36ZM317.526 300.552C316.977 300.552 316.541 300.387 316.216 300.056C315.894 299.723 315.733 299.276 315.733 298.715C315.733 298.147 315.895 297.699 316.219 297.371C316.546 297.042 316.989 296.878 317.548 296.878C318.109 296.878 318.552 297.042 318.876 297.371C319.203 297.699 319.366 298.145 319.366 298.709C319.366 299.285 319.203 299.736 318.876 300.063C318.55 300.389 318.1 300.552 317.526 300.552ZM317.542 299.96C317.798 299.96 317.997 299.85 318.14 299.631C318.285 299.409 318.358 299.101 318.358 298.709C318.358 298.327 318.285 298.025 318.14 297.803C317.997 297.581 317.8 297.47 317.548 297.47C317.298 297.47 317.101 297.581 316.956 297.803C316.813 298.025 316.741 298.329 316.741 298.715C316.741 299.097 316.813 299.4 316.956 299.624C317.099 299.848 317.294 299.96 317.542 299.96ZM321.713 300.552C321.164 300.552 320.728 300.387 320.403 300.056C320.081 299.723 319.92 299.276 319.92 298.715C319.92 298.147 320.082 297.699 320.406 297.371C320.733 297.042 321.176 296.878 321.735 296.878C322.296 296.878 322.739 297.042 323.063 297.371C323.39 297.699 323.553 298.145 323.553 298.709C323.553 299.285 323.39 299.736 323.063 300.063C322.737 300.389 322.287 300.552 321.713 300.552ZM321.729 299.96C321.985 299.96 322.184 299.85 322.327 299.631C322.472 299.409 322.545 299.101 322.545 298.709C322.545 298.327 322.472 298.025 322.327 297.803C322.184 297.581 321.987 297.47 321.735 297.47C321.485 297.47 321.288 297.581 321.143 297.803C321 298.025 320.928 298.329 320.928 298.715C320.928 299.097 321 299.4 321.143 299.624C321.286 299.848 321.481 299.96 321.729 299.96ZM324.449 301.564L324.526 300.876C324.917 301.055 325.289 301.145 325.643 301.145C325.993 301.145 326.246 301.07 326.402 300.921C326.558 300.771 326.636 300.529 326.636 300.194V299.714C326.405 300.22 326.024 300.472 325.493 300.472C325.075 300.472 324.743 300.317 324.497 300.005C324.252 299.691 324.129 299.268 324.129 298.734C324.129 298.173 324.267 297.724 324.542 297.387C324.818 297.047 325.184 296.878 325.64 296.878C325.999 296.878 326.331 297.023 326.636 297.313L326.735 296.958H327.586V299.64C327.586 300.176 327.553 300.562 327.487 300.799C327.423 301.036 327.297 301.238 327.11 301.404C326.794 301.677 326.349 301.814 325.775 301.814C325.367 301.814 324.925 301.73 324.449 301.564ZM326.636 299.163V297.867C326.407 297.609 326.168 297.479 325.919 297.479C325.68 297.479 325.49 297.588 325.349 297.806C325.208 298.024 325.138 298.316 325.138 298.683C325.138 299.37 325.359 299.714 325.8 299.714C326.105 299.714 326.384 299.53 326.636 299.163ZM328.752 300.472V295.418H329.699V300.472H328.752ZM333.745 300.354C333.295 300.486 332.868 300.552 332.465 300.552C331.878 300.552 331.415 300.386 331.076 300.053C330.736 299.72 330.567 299.266 330.567 298.689C330.567 298.145 330.721 297.708 331.031 297.377C331.342 297.044 331.753 296.878 332.263 296.878C332.778 296.878 333.153 297.04 333.39 297.364C333.627 297.689 333.745 298.202 333.745 298.904H331.565C331.629 299.574 331.998 299.909 332.67 299.909C332.988 299.909 333.346 299.835 333.745 299.688V300.354ZM331.553 298.369H332.814C332.814 297.77 332.621 297.47 332.234 297.47C331.842 297.47 331.614 297.77 331.553 298.369ZM336.553 300.431V299.618C337.063 299.831 337.499 299.938 337.862 299.938C338.116 299.938 338.315 299.881 338.461 299.768C338.608 299.655 338.681 299.501 338.681 299.307C338.681 299.154 338.636 299.025 338.544 298.92C338.452 298.813 338.278 298.687 338.022 298.542L337.705 298.366C337.28 298.127 336.981 297.899 336.806 297.681C336.631 297.461 336.543 297.205 336.543 296.913C336.543 296.522 336.686 296.209 336.972 295.972C337.26 295.735 337.64 295.616 338.112 295.616C338.489 295.616 338.915 295.671 339.389 295.78V296.538C338.904 296.357 338.521 296.266 338.24 296.266C338.022 296.266 337.847 296.315 337.715 296.414C337.584 296.51 337.519 296.637 337.519 296.794C337.519 296.925 337.565 297.039 337.657 297.137C337.749 297.235 337.922 297.356 338.176 297.499L338.515 297.688C338.972 297.944 339.286 298.179 339.459 298.395C339.632 298.611 339.719 298.873 339.719 299.182C339.719 299.622 339.555 299.967 339.229 300.216C338.902 300.466 338.452 300.591 337.878 300.591C337.498 300.591 337.056 300.538 336.553 300.431ZM340.564 300.472V295.735H343.525V296.385H341.55V297.707H343.169V298.36H341.55V299.8H343.675V300.472H340.564ZM344.501 300.472V295.735H346.274C346.744 295.735 347.101 295.835 347.347 296.036C347.594 296.234 347.718 296.526 347.718 296.91C347.718 297.202 347.636 297.469 347.472 297.71C347.309 297.949 347.085 298.132 346.799 298.261L348.349 300.472H347.148L345.973 298.536H345.429V300.472H344.501ZM345.429 297.886H345.657C346.371 297.886 346.729 297.597 346.729 297.019C346.729 296.596 346.41 296.385 345.772 296.385H345.429V297.886ZM349.027 300.472V295.735H350.679C351.255 295.735 351.666 295.832 351.911 296.026C352.159 296.218 352.283 296.54 352.283 296.993C352.283 297.505 352.117 297.904 351.787 298.19C351.458 298.474 350.997 298.616 350.404 298.616H349.994V300.472H349.027ZM349.994 297.966H350.186C350.523 297.966 350.789 297.888 350.983 297.732C351.179 297.574 351.278 297.361 351.278 297.092C351.278 296.621 350.978 296.385 350.378 296.385H349.994V297.966ZM355.141 300.472V295.735H358.121V296.385H356.127V297.825H357.766V298.478H356.127V300.472H355.141ZM361.768 300.354C361.317 300.486 360.89 300.552 360.487 300.552C359.9 300.552 359.437 300.386 359.098 300.053C358.758 299.72 358.589 299.266 358.589 298.689C358.589 298.145 358.744 297.708 359.053 297.377C359.365 297.044 359.775 296.878 360.285 296.878C360.8 296.878 361.175 297.04 361.412 297.364C361.649 297.689 361.768 298.202 361.768 298.904H359.588C359.652 299.574 360.02 299.909 360.692 299.909C361.01 299.909 361.368 299.835 361.768 299.688V300.354ZM359.575 298.369H360.836C360.836 297.77 360.643 297.47 360.257 297.47C359.864 297.47 359.637 297.77 359.575 298.369ZM364.469 300.095C364.153 300.4 363.815 300.552 363.454 300.552C363.147 300.552 362.897 300.459 362.705 300.271C362.513 300.083 362.417 299.84 362.417 299.541C362.417 299.153 362.572 298.854 362.881 298.645C363.193 298.433 363.638 298.328 364.216 298.328H364.469V298.008C364.469 297.643 364.261 297.46 363.845 297.46C363.476 297.46 363.102 297.565 362.725 297.774V297.121C363.154 296.959 363.578 296.878 363.999 296.878C364.918 296.878 365.378 297.244 365.378 297.976V299.531C365.378 299.807 365.463 299.944 365.631 299.944C365.67 299.944 365.723 299.933 365.791 299.909V300.463C365.591 300.523 365.414 300.552 365.26 300.552C364.871 300.552 364.622 300.4 364.511 300.095H364.469ZM364.469 299.586V298.872H364.245C363.959 298.872 363.734 298.923 363.57 299.026C363.408 299.128 363.326 299.269 363.326 299.448C363.326 299.578 363.37 299.688 363.458 299.778C363.547 299.865 363.657 299.909 363.787 299.909C364.009 299.909 364.237 299.801 364.469 299.586ZM368.413 300.453C368.187 300.519 368.009 300.552 367.878 300.552C367.449 300.552 367.137 300.461 366.94 300.277C366.744 300.094 366.646 299.801 366.646 299.4V297.55H366.252V296.958H366.646V296.365L367.593 296.257V296.958H368.346V297.55H367.593V299.275C367.593 299.706 367.77 299.922 368.122 299.922C368.203 299.922 368.3 299.907 368.413 299.877V300.453ZM371.432 300.472V299.81C371.124 300.305 370.725 300.552 370.234 300.552C369.921 300.552 369.673 300.453 369.492 300.255C369.31 300.056 369.22 299.785 369.22 299.442V296.958H370.167V299.208C370.167 299.607 370.3 299.807 370.567 299.807C370.866 299.807 371.154 299.594 371.432 299.17V296.958H372.379V300.472H371.432ZM373.567 300.472V296.958H374.514V297.62C374.76 297.125 375.133 296.878 375.635 296.878C375.694 296.878 375.753 296.884 375.811 296.897V297.742C375.676 297.693 375.551 297.668 375.436 297.668C375.058 297.668 374.751 297.859 374.514 298.241V300.472H373.567ZM379.412 300.354C378.962 300.486 378.535 300.552 378.131 300.552C377.545 300.552 377.081 300.386 376.742 300.053C376.403 299.72 376.233 299.266 376.233 298.689C376.233 298.145 376.388 297.708 376.697 297.377C377.009 297.044 377.42 296.878 377.93 296.878C378.444 296.878 378.82 297.04 379.056 297.364C379.293 297.689 379.412 298.202 379.412 298.904H377.232C377.296 299.574 377.664 299.909 378.336 299.909C378.654 299.909 379.013 299.835 379.412 299.688V300.354ZM377.219 298.369H378.48C378.48 297.77 378.287 297.47 377.901 297.47C377.508 297.47 377.281 297.77 377.219 298.369ZM380.298 300.36V299.666C380.768 299.862 381.169 299.96 381.502 299.96C381.89 299.96 382.085 299.828 382.085 299.563C382.085 299.393 381.925 299.243 381.605 299.115L381.284 298.987C380.937 298.846 380.688 298.695 380.539 298.533C380.389 298.37 380.314 298.17 380.314 297.931C380.314 297.598 380.441 297.34 380.695 297.156C380.949 296.97 381.305 296.878 381.761 296.878C382.047 296.878 382.388 296.919 382.783 297.003V297.668C382.403 297.536 382.088 297.47 381.838 297.47C381.446 297.47 381.249 297.592 381.249 297.835C381.249 297.995 381.394 298.13 381.685 298.241L381.96 298.347C382.372 298.503 382.658 298.661 382.818 298.821C382.98 298.981 383.061 299.187 383.061 299.439C383.061 299.769 382.923 300.038 382.648 300.245C382.375 300.45 382.019 300.552 381.579 300.552C381.156 300.552 380.73 300.488 380.298 300.36Z" fill="#303030"/>
<mask id="path-37-inside-2_3097_35726" fill="white">
<path d="M66.9102 307.491H449.331V324.974H66.9102V307.491Z"/>
</mask>
<path d="M66.9102 307.491H449.331V324.974H66.9102V307.491Z" fill="white"/>
<path d="M449.331 324.427H66.9102V325.52H449.331V324.427Z" fill="#E7E7E7" mask="url(#path-37-inside-2_3097_35726)"/>
<rect x="89.3125" y="312.408" width="0.546316" height="8.74105" rx="0.273158" fill="#D9D9D9"/>
<rect opacity="0.7" x="98.5996" y="315.14" width="54.6316" height="4.37052" rx="2.18526" fill="#6DBC00"/>
<path d="M76.5019 319.047V318.494H77.4494V314.998L76.5019 315.235V314.665L78.4001 314.191V318.494H79.3476V319.047H76.5019Z" fill="#909090"/>
<rect x="206.221" y="312.408" width="0.546316" height="8.74105" rx="0.273158" fill="#D9D9D9"/>
<rect x="215.508" y="315.14" width="32.779" height="4.37052" rx="2.18526" fill="#E7E7E7"/>
<rect x="396.339" y="312.408" width="0.546316" height="8.74105" rx="0.273158" fill="#D9D9D9"/>
<path d="M406.539 319.047C406.584 318.691 406.672 318.378 406.802 318.109C406.934 317.84 407.23 317.371 407.688 316.701L408.802 315.078H406.338V314.31H409.577V315.078C408.956 315.861 408.47 316.605 408.117 317.309C407.765 318.011 407.589 318.59 407.589 319.047H406.539ZM411.885 319.166C411.347 319.166 410.91 318.935 410.573 318.474C410.238 318.013 410.07 317.415 410.07 316.678C410.07 315.934 410.239 315.333 410.576 314.876C410.913 314.419 411.357 314.191 411.907 314.191C412.454 314.191 412.896 314.419 413.233 314.876C413.572 315.331 413.742 315.927 413.742 316.666C413.742 317.423 413.572 318.029 413.233 318.484C412.896 318.938 412.446 319.166 411.885 319.166ZM411.895 318.573C412.456 318.573 412.737 317.942 412.737 316.678C412.737 315.415 412.46 314.783 411.907 314.783C411.355 314.783 411.078 315.414 411.078 316.675C411.078 317.941 411.35 318.573 411.895 318.573ZM414.385 319.166L418.111 314.191H418.751L415.028 319.166H414.385ZM415.195 316.678C414.851 316.678 414.579 316.573 414.379 316.361C414.18 316.148 414.081 315.859 414.081 315.494C414.081 315.125 414.181 314.836 414.382 314.626C414.582 314.415 414.858 314.31 415.208 314.31C415.556 314.31 415.83 314.415 416.03 314.626C416.231 314.836 416.331 315.124 416.331 315.491C416.331 315.862 416.231 316.153 416.03 316.365C415.83 316.574 415.551 316.678 415.195 316.678ZM415.201 316.205C415.481 316.205 415.621 315.967 415.621 315.491C415.621 315.019 415.483 314.783 415.208 314.783C414.93 314.783 414.792 315.02 414.792 315.494C414.792 315.968 414.928 316.205 415.201 316.205ZM417.919 319.047C417.575 319.047 417.303 318.942 417.103 318.73C416.904 318.517 416.805 318.228 416.805 317.863C416.805 317.494 416.905 317.204 417.106 316.995C417.307 316.784 417.582 316.678 417.932 316.678C418.282 316.678 418.556 316.784 418.755 316.995C418.955 317.204 419.055 317.493 419.055 317.86C419.055 318.233 418.955 318.524 418.755 318.733C418.554 318.943 418.275 319.047 417.919 319.047ZM417.925 318.573C418.205 318.573 418.345 318.335 418.345 317.86C418.345 317.388 418.207 317.152 417.932 317.152C417.654 317.152 417.516 317.389 417.516 317.863C417.516 318.337 417.652 318.573 417.925 318.573Z" fill="#757575"/>
<rect x="427.479" y="315.14" width="4.37053" height="4.37052" rx="2.18526" fill="#6DBC00"/>
<rect x="301.279" y="312.408" width="0.546316" height="8.74105" rx="0.273158" fill="#D9D9D9"/>
<rect x="310.566" y="315.14" width="32.779" height="4.37052" rx="2.18526" fill="#E7E7E7"/>
<mask id="path-49-inside-3_3097_35726" fill="white">
<path d="M66.9102 324.974H449.331V342.456H66.9102V324.974Z"/>
</mask>
<path d="M66.9102 324.974H449.331V342.456H66.9102V324.974Z" fill="white"/>
<path d="M449.331 341.909H66.9102V343.002H449.331V341.909Z" fill="#E7E7E7" mask="url(#path-49-inside-3_3097_35726)"/>
<rect x="89.3125" y="329.89" width="0.546316" height="8.74105" rx="0.273158" fill="#D9D9D9"/>
<rect opacity="0.7" x="98.5996" y="332.622" width="76.4842" height="4.37052" rx="2.18526" fill="#6DBC00"/>
<path d="M76.0537 336.529V335.78L76.1049 335.71C76.3589 335.371 76.6192 335.085 76.886 334.852L77.2733 334.509C77.9114 333.946 78.2305 333.452 78.2305 333.027C78.2305 332.795 78.1558 332.613 78.0064 332.483C77.857 332.351 77.65 332.285 77.3854 332.285C77.0375 332.285 76.6342 332.402 76.1754 332.637V331.942C76.6577 331.763 77.1239 331.673 77.5742 331.673C78.0779 331.673 78.4812 331.793 78.7842 332.032C79.0873 332.269 79.2388 332.587 79.2388 332.986C79.2388 333.261 79.1652 333.512 79.0179 333.738C78.8707 333.964 78.6114 334.227 78.2401 334.525L77.9199 334.782C77.4739 335.14 77.2093 335.473 77.1261 335.78H79.2196V336.529H76.0537Z" fill="#909090"/>
<rect x="206.221" y="329.89" width="0.546316" height="8.74105" rx="0.273158" fill="#D9D9D9"/>
<rect x="215.508" y="332.622" width="27.3158" height="4.37052" rx="2.18526" fill="#E7E7E7"/>
<rect x="396.339" y="329.89" width="0.546316" height="8.74105" rx="0.273158" fill="#D9D9D9"/>
<path d="M406.373 336.51V335.822C406.776 335.978 407.112 336.055 407.381 336.055C407.652 336.055 407.867 335.975 408.025 335.815C408.185 335.653 408.265 335.434 408.265 335.159C408.265 334.833 408.138 334.582 407.884 334.407C407.632 334.23 407.271 334.141 406.802 334.141C406.687 334.141 406.571 334.151 406.456 334.17V331.792H409.177V332.541H407.147L407.099 333.562C407.782 333.562 408.315 333.702 408.697 333.981C409.081 334.261 409.273 334.651 409.273 335.153C409.273 335.616 409.105 335.981 408.77 336.248C408.435 336.514 407.977 336.648 407.394 336.648C407.146 336.648 406.806 336.602 406.373 336.51ZM410.217 336.529V335.78L410.269 335.71C410.522 335.37 410.783 335.084 411.05 334.852L411.437 334.509C412.075 333.946 412.394 333.452 412.394 333.027C412.394 332.795 412.319 332.613 412.17 332.483C412.021 332.351 411.814 332.285 411.549 332.285C411.201 332.285 410.798 332.402 410.339 332.637V331.942C410.821 331.763 411.288 331.673 411.738 331.673C412.241 331.673 412.645 331.793 412.948 332.032C413.251 332.269 413.402 332.587 413.402 332.986C413.402 333.261 413.329 333.512 413.181 333.738C413.034 333.964 412.775 334.227 412.404 334.525L412.084 334.781C411.637 335.14 411.373 335.473 411.29 335.78H413.383V336.529H410.217ZM414.385 336.648L418.111 331.673H418.751L415.028 336.648H414.385ZM415.195 334.16C414.851 334.16 414.579 334.055 414.379 333.844C414.18 333.63 414.081 333.341 414.081 332.976C414.081 332.607 414.181 332.318 414.382 332.109C414.582 331.897 414.858 331.792 415.208 331.792C415.556 331.792 415.83 331.897 416.03 332.109C416.231 332.318 416.331 332.606 416.331 332.973C416.331 333.344 416.231 333.635 416.03 333.847C415.83 334.056 415.551 334.16 415.195 334.16ZM415.201 333.687C415.481 333.687 415.621 333.449 415.621 332.973C415.621 332.501 415.483 332.265 415.208 332.265C414.93 332.265 414.792 332.502 414.792 332.976C414.792 333.45 414.928 333.687 415.201 333.687ZM417.919 336.529C417.575 336.529 417.303 336.424 417.103 336.212C416.904 335.999 416.805 335.71 416.805 335.345C416.805 334.976 416.905 334.686 417.106 334.477C417.307 334.266 417.582 334.16 417.932 334.16C418.282 334.16 418.556 334.266 418.755 334.477C418.955 334.686 419.055 334.975 419.055 335.342C419.055 335.715 418.955 336.006 418.755 336.216C418.554 336.425 418.275 336.529 417.919 336.529ZM417.925 336.055C418.205 336.055 418.345 335.818 418.345 335.342C418.345 334.87 418.207 334.634 417.932 334.634C417.654 334.634 417.516 334.871 417.516 335.345C417.516 335.819 417.652 336.055 417.925 336.055Z" fill="#757575"/>
<rect x="427.479" y="332.622" width="4.37053" height="4.37052" rx="2.18526" fill="#FFB800"/>
<rect x="301.279" y="329.89" width="0.546316" height="8.74105" rx="0.273158" fill="#D9D9D9"/>
<rect x="310.566" y="332.622" width="21.8526" height="4.37052" rx="2.18526" fill="#E7E7E7"/>
<mask id="path-61-inside-4_3097_35726" fill="white">
<path d="M66.9102 342.456H449.331V359.938H66.9102V342.456Z"/>
</mask>
<path d="M66.9102 342.456H449.331V359.938H66.9102V342.456Z" fill="white"/>
<path d="M449.331 359.391H66.9102V360.484H449.331V359.391Z" fill="#E7E7E7" mask="url(#path-61-inside-4_3097_35726)"/>
<rect x="89.3125" y="347.372" width="0.546316" height="8.74105" rx="0.273158" fill="#D9D9D9"/>
<rect opacity="0.7" x="98.5996" y="350.104" width="32.779" height="4.37052" rx="2.18526" fill="#6DBC00"/>
<path d="M76.2266 353.976V353.266C76.6961 353.447 77.0834 353.538 77.3886 353.538C77.6724 353.538 77.8997 353.465 78.0704 353.32C78.2433 353.175 78.3297 352.982 78.3297 352.741C78.3297 352.115 77.8719 351.803 76.9564 351.803H76.6651V351.236L76.9116 351.233C77.3491 351.233 77.6724 351.165 77.8815 351.028C78.0928 350.889 78.1984 350.677 78.1984 350.391C78.1984 349.962 77.9338 349.748 77.4046 349.748C77.0567 349.748 76.6854 349.836 76.2906 350.013V349.367C76.7067 349.224 77.1453 349.152 77.6062 349.152C78.0949 349.152 78.4769 349.253 78.7522 349.453C79.0297 349.654 79.1684 349.931 79.1684 350.285C79.1684 350.845 78.8194 351.239 78.1216 351.47C78.9197 351.653 79.3188 352.08 79.3188 352.75C79.3188 353.175 79.1588 353.511 78.8387 353.759C78.5185 354.006 78.0832 354.13 77.5326 354.13C77.0653 354.13 76.6299 354.079 76.2266 353.976Z" fill="#909090"/>
<rect x="206.221" y="347.372" width="0.546316" height="8.74105" rx="0.273158" fill="#D9D9D9"/>
<rect x="215.508" y="350.104" width="38.2421" height="4.37052" rx="2.18526" fill="#E7E7E7"/>
<rect x="396.339" y="347.372" width="0.546316" height="8.74105" rx="0.273158" fill="#D9D9D9"/>
<path d="M408.076 354.012V352.747H405.864V352.036L408.037 349.274H408.905V352.036H409.459V352.747H408.905V354.012H408.076ZM406.622 352.036H408.095V350.18L406.622 352.036ZM410.39 353.976V353.266C410.86 353.447 411.247 353.538 411.552 353.538C411.836 353.538 412.063 353.465 412.234 353.32C412.407 353.175 412.493 352.982 412.493 352.741C412.493 352.115 412.035 351.803 411.12 351.803H410.829V351.236L411.075 351.233C411.513 351.233 411.836 351.165 412.045 351.028C412.256 350.889 412.362 350.677 412.362 350.391C412.362 349.962 412.097 349.748 411.568 349.748C411.22 349.748 410.849 349.836 410.454 350.013V349.367C410.87 349.224 411.309 349.152 411.77 349.152C412.259 349.152 412.64 349.253 412.916 349.453C413.193 349.654 413.332 349.931 413.332 350.285C413.332 350.845 412.983 351.239 412.285 351.47C413.083 351.653 413.482 352.08 413.482 352.75C413.482 353.175 413.322 353.511 413.002 353.759C412.682 354.006 412.247 354.13 411.696 354.13C411.229 354.13 410.793 354.079 410.39 353.976ZM414.385 354.13L418.111 349.156H418.751L415.028 354.13H414.385ZM415.195 351.643C414.851 351.643 414.579 351.537 414.379 351.326C414.18 351.112 414.081 350.823 414.081 350.458C414.081 350.089 414.181 349.8 414.382 349.591C414.582 349.38 414.858 349.274 415.208 349.274C415.556 349.274 415.83 349.38 416.03 349.591C416.231 349.8 416.331 350.088 416.331 350.455C416.331 350.826 416.231 351.118 416.03 351.329C415.83 351.538 415.551 351.643 415.195 351.643ZM415.201 351.169C415.481 351.169 415.621 350.931 415.621 350.455C415.621 349.984 415.483 349.748 415.208 349.748C414.93 349.748 414.792 349.985 414.792 350.458C414.792 350.932 414.928 351.169 415.201 351.169ZM417.919 354.012C417.575 354.012 417.303 353.906 417.103 353.695C416.904 353.481 416.805 353.192 416.805 352.827C416.805 352.458 416.905 352.169 417.106 351.96C417.307 351.748 417.582 351.643 417.932 351.643C418.282 351.643 418.556 351.748 418.755 351.96C418.955 352.169 419.055 352.457 419.055 352.824C419.055 353.197 418.955 353.489 418.755 353.698C418.554 353.907 418.275 354.012 417.919 354.012ZM417.925 353.538C418.205 353.538 418.345 353.3 418.345 352.824C418.345 352.352 418.207 352.117 417.932 352.117C417.654 352.117 417.516 352.353 417.516 352.827C417.516 353.301 417.652 353.538 417.925 353.538Z" fill="#757575"/>
<rect x="427.479" y="350.104" width="4.37053" height="4.37052" rx="2.18526" fill="#FFB800"/>
<rect x="301.279" y="347.372" width="0.546316" height="8.74105" rx="0.273158" fill="#D9D9D9"/>
<rect x="310.566" y="350.104" width="10.9263" height="4.37052" rx="2.18526" fill="#E7E7E7"/>
<rect x="67.2852" y="256.138" width="382.421" height="27.3158" fill="#F8F8F8"/>
<path d="M76.8377 273.009V271.925C77.5177 272.209 78.0996 272.351 78.5833 272.351C78.9219 272.351 79.188 272.276 79.3815 272.125C79.5778 271.974 79.676 271.769 79.676 271.511C79.676 271.306 79.6148 271.134 79.4924 270.994C79.3701 270.852 79.1382 270.684 78.7967 270.49L78.3742 270.256C77.808 269.937 77.4082 269.633 77.1749 269.342C76.9415 269.049 76.8249 268.708 76.8249 268.318C76.8249 267.797 77.0155 267.379 77.3968 267.063C77.7809 266.747 78.2874 266.589 78.9162 266.589C79.4199 266.589 79.9875 266.662 80.6192 266.807V267.819C79.9733 267.577 79.4626 267.456 79.087 267.456C78.7967 267.456 78.5634 267.521 78.387 267.652C78.2134 267.78 78.1267 267.95 78.1267 268.16C78.1267 268.334 78.1878 268.486 78.3102 268.617C78.4325 268.748 78.663 268.908 79.0016 269.099L79.454 269.351C80.0629 269.692 80.4826 270.007 80.7131 270.294C80.9436 270.582 81.0588 270.932 81.0588 271.344C81.0588 271.93 80.8412 272.39 80.4058 272.723C79.9705 273.056 79.3701 273.222 78.6047 273.222C78.0982 273.222 77.5092 273.151 76.8377 273.009ZM82.1856 273.064V266.747H86.1336V267.614H83.5002V269.377H85.6598V270.247H83.5002V272.168H86.3342V273.064H82.1856ZM87.4354 273.064V266.747H89.7999C90.4259 266.747 90.9025 266.881 91.2297 267.149C91.5598 267.413 91.7248 267.802 91.7248 268.314C91.7248 268.704 91.6152 269.059 91.3961 269.381C91.1799 269.699 90.8811 269.944 90.4999 270.115L92.5656 273.064H90.9651L89.3987 270.482H88.6731V273.064H87.4354ZM88.6731 269.616H88.9761C89.9293 269.616 90.406 269.23 90.406 268.459C90.406 267.895 89.9806 267.614 89.1298 267.614H88.6731V269.616ZM93.4704 273.064V266.747H95.6728C96.441 266.747 96.9888 266.877 97.316 267.136C97.6461 267.392 97.8111 267.821 97.8111 268.425C97.8111 269.108 97.5906 269.64 97.1495 270.021C96.7113 270.399 96.0967 270.589 95.3057 270.589H94.7594V273.064H93.4704ZM94.7594 269.722H95.0155C95.4651 269.722 95.8193 269.618 96.0782 269.411C96.34 269.2 96.4709 268.916 96.4709 268.557C96.4709 267.928 96.0711 267.614 95.2716 267.614H94.7594V269.722ZM101.622 273.064V266.747H105.596V267.614H102.937V269.534H105.122V270.405H102.937V273.064H101.622ZM110.457 272.906C109.857 273.083 109.288 273.171 108.75 273.171C107.968 273.171 107.35 272.949 106.898 272.505C106.445 272.061 106.219 271.455 106.219 270.687C106.219 269.961 106.426 269.378 106.838 268.937C107.254 268.493 107.801 268.271 108.481 268.271C109.167 268.271 109.668 268.487 109.984 268.92C110.3 269.352 110.457 270.037 110.457 270.973H107.551C107.636 271.866 108.127 272.313 109.023 272.313C109.447 272.313 109.925 272.215 110.457 272.018V272.906ZM107.534 270.26H109.215C109.215 269.46 108.958 269.061 108.443 269.061C107.919 269.061 107.616 269.46 107.534 270.26ZM114.06 272.56C113.639 272.967 113.188 273.171 112.707 273.171C112.297 273.171 111.964 273.046 111.708 272.795C111.452 272.545 111.324 272.22 111.324 271.822C111.324 271.304 111.53 270.906 111.943 270.627C112.358 270.345 112.951 270.205 113.723 270.205H114.06V269.778C114.06 269.291 113.782 269.048 113.227 269.048C112.735 269.048 112.237 269.187 111.734 269.466V268.595C112.306 268.379 112.872 268.271 113.432 268.271C114.659 268.271 115.272 268.759 115.272 269.735V271.809C115.272 272.176 115.384 272.36 115.609 272.36C115.66 272.36 115.731 272.344 115.822 272.313V273.051C115.555 273.131 115.319 273.171 115.114 273.171C114.596 273.171 114.263 272.967 114.115 272.56H114.06ZM114.06 271.882V270.93H113.761C113.38 270.93 113.079 270.998 112.86 271.135C112.644 271.272 112.536 271.459 112.536 271.698C112.536 271.872 112.594 272.018 112.711 272.138C112.831 272.255 112.977 272.313 113.151 272.313C113.447 272.313 113.75 272.169 114.06 271.882ZM119.318 273.039C119.016 273.127 118.779 273.171 118.605 273.171C118.033 273.171 117.616 273.048 117.355 272.804C117.093 272.559 116.962 272.169 116.962 271.634V269.167H116.437V268.378H116.962V267.588L118.225 267.443V268.378H119.228V269.167H118.225V271.468C118.225 272.043 118.46 272.33 118.93 272.33C119.038 272.33 119.167 272.31 119.318 272.27V273.039ZM123.343 273.064V272.181C122.933 272.841 122.401 273.171 121.747 273.171C121.328 273.171 120.998 273.039 120.756 272.774C120.514 272.509 120.394 272.148 120.394 271.69V268.378H121.657V271.378C121.657 271.91 121.835 272.176 122.19 272.176C122.589 272.176 122.973 271.893 123.343 271.327V268.378H124.606V273.064H123.343ZM126.19 273.064V268.378H127.453V269.261C127.78 268.601 128.278 268.271 128.947 268.271C129.026 268.271 129.105 268.28 129.182 268.297V269.423C129.002 269.358 128.836 269.325 128.682 269.325C128.179 269.325 127.769 269.58 127.453 270.089V273.064H126.19ZM133.983 272.906C133.383 273.083 132.814 273.171 132.276 273.171C131.493 273.171 130.876 272.949 130.424 272.505C129.971 272.061 129.745 271.455 129.745 270.687C129.745 269.961 129.951 269.378 130.364 268.937C130.779 268.493 131.327 268.271 132.007 268.271C132.693 268.271 133.194 268.487 133.509 268.92C133.825 269.352 133.983 270.037 133.983 270.973H131.077C131.162 271.866 131.653 272.313 132.549 272.313C132.973 272.313 133.451 272.215 133.983 272.018V272.906ZM131.06 270.26H132.741C132.741 269.46 132.484 269.061 131.969 269.061C131.445 269.061 131.142 269.46 131.06 270.26ZM135.165 272.915V271.989C135.791 272.25 136.326 272.381 136.77 272.381C137.288 272.381 137.547 272.205 137.547 271.852C137.547 271.624 137.334 271.425 136.907 271.254L136.48 271.084C136.016 270.896 135.685 270.694 135.486 270.478C135.286 270.261 135.187 269.994 135.187 269.675C135.187 269.231 135.356 268.887 135.695 268.642C136.033 268.395 136.507 268.271 137.116 268.271C137.497 268.271 137.951 268.327 138.477 268.438V269.325C137.971 269.149 137.551 269.061 137.218 269.061C136.695 269.061 136.433 269.223 136.433 269.547C136.433 269.761 136.627 269.941 137.014 270.089L137.381 270.23C137.93 270.438 138.311 270.648 138.524 270.862C138.741 271.075 138.849 271.35 138.849 271.686C138.849 272.127 138.665 272.485 138.298 272.761C137.934 273.034 137.459 273.171 136.873 273.171C136.309 273.171 135.74 273.085 135.165 272.915Z" fill="#303030"/>
<path fill-rule="evenodd" clip-rule="evenodd" d="M204.815 184.703L203.871 178.58C203.856 178.496 203.87 178.409 203.91 178.334C203.95 178.258 204.014 178.198 204.092 178.164C204.17 178.129 204.258 178.122 204.34 178.143C204.423 178.164 204.496 178.212 204.549 178.28L206.94 181.4L208.724 177.742C208.755 177.677 208.804 177.623 208.865 177.585C208.925 177.547 208.995 177.527 209.067 177.527C209.138 177.527 209.208 177.547 209.269 177.585C209.329 177.623 209.378 177.677 209.409 177.742L211.193 181.4L213.585 178.28C213.637 178.212 213.71 178.164 213.793 178.143C213.876 178.122 213.963 178.129 214.041 178.164C214.119 178.198 214.184 178.258 214.224 178.334C214.264 178.409 214.277 178.496 214.262 178.58L213.32 184.703H204.814H204.815ZM213.171 186.614C213.183 186.782 213.128 186.947 213.019 187.075C212.91 187.203 212.754 187.283 212.587 187.297H205.55C205.383 187.283 205.227 187.203 205.118 187.075C205.009 186.947 204.954 186.782 204.966 186.614V185.977H213.174V186.614H213.171Z" fill="#C4C4C4"/>
<rect x="207.756" y="145.71" width="2.595" height="24.6734" rx="1.2975" fill="#F1F1F1"/>
<rect x="207.756" y="156.749" width="2.595" height="13.6353" rx="1.2975" fill="#FFAB49"/>
<path fill-rule="evenodd" clip-rule="evenodd" d="M233.201 186.06C234.259 184.656 235.798 182.306 235.798 180.515V180.45C235.798 180.429 235.792 180.409 235.792 180.385C235.771 179.622 235.509 178.886 235.043 178.281C234.578 177.676 233.933 177.233 233.201 177.017C233.518 176.925 233.845 176.878 234.175 176.877C234.648 176.881 235.116 176.979 235.552 177.164C235.987 177.349 236.382 177.618 236.714 177.955C237.046 178.293 237.307 178.693 237.485 179.132C237.662 179.57 237.751 180.04 237.746 180.513C237.746 183.24 234.175 187.266 234.175 187.266C234.175 187.266 233.753 186.793 233.201 186.06ZM230.929 187.268C230.929 187.268 227.357 183.242 227.357 180.515C227.357 179.568 227.734 178.66 228.403 177.99C229.073 177.32 229.981 176.944 230.929 176.944C231.876 176.944 232.784 177.32 233.454 177.99C234.123 178.66 234.5 179.568 234.5 180.515C234.5 183.242 230.929 187.268 230.929 187.268ZM230.929 178.827C230.608 178.827 230.294 178.922 230.027 179.101C229.76 179.279 229.552 179.532 229.429 179.829C229.306 180.126 229.274 180.452 229.337 180.767C229.399 181.082 229.554 181.371 229.781 181.598C230.008 181.825 230.297 181.98 230.612 182.042C230.927 182.105 231.253 182.073 231.55 181.95C231.846 181.827 232.1 181.619 232.278 181.352C232.457 181.085 232.552 180.771 232.552 180.45C232.552 180.02 232.381 179.607 232.076 179.302C231.772 178.998 231.359 178.827 230.929 178.827Z" fill="#C4C4C4"/>
<rect x="231.248" y="145.71" width="2.595" height="24.0241" rx="1.2975" fill="#F1F1F1"/>
<rect x="231.248" y="164.54" width="2.595" height="5.19439" rx="1.2975" fill="#FFAB49"/>
<path fill-rule="evenodd" clip-rule="evenodd" d="M260.081 187.266H252.002C251.696 187.266 251.402 187.144 251.186 186.928C250.969 186.711 250.848 186.418 250.848 186.111V178.032C250.848 177.725 250.969 177.432 251.186 177.215C251.402 176.999 251.696 176.877 252.002 176.877H260.081C260.232 176.877 260.383 176.907 260.523 176.965C260.663 177.023 260.791 177.108 260.898 177.215C261.005 177.322 261.09 177.449 261.148 177.589C261.207 177.73 261.236 177.88 261.236 178.032V186.111C261.236 186.418 261.114 186.711 260.897 186.928C260.681 187.144 260.387 187.266 260.081 187.266ZM259.938 178.176H252.146V185.308L254.65 182.072L256.598 184.338L257.99 183.045L259.938 185.31V178.176ZM256.691 180.448C256.691 180.256 256.748 180.067 256.855 179.907C256.963 179.747 257.115 179.622 257.293 179.548C257.471 179.475 257.666 179.455 257.855 179.493C258.044 179.531 258.218 179.623 258.354 179.76C258.49 179.896 258.583 180.069 258.621 180.258C258.658 180.447 258.639 180.643 258.565 180.821C258.491 180.999 258.367 181.151 258.206 181.258C258.046 181.365 257.858 181.422 257.665 181.422C257.407 181.422 257.159 181.32 256.977 181.137C256.794 180.954 256.691 180.707 256.691 180.448Z" fill="#C4C4C4"/>
<rect x="254.738" y="145.71" width="2.595" height="24.0241" rx="1.2975" fill="#F1F1F1"/>
<rect x="254.738" y="157.398" width="2.595" height="12.3367" rx="1.2975" fill="#FFAB49"/>
<path fill-rule="evenodd" clip-rule="evenodd" d="M283.682 187.266H275.378C275.243 187.268 275.11 187.243 274.985 187.193C274.86 187.144 274.746 187.07 274.65 186.976C274.553 186.882 274.476 186.77 274.423 186.647C274.37 186.523 274.342 186.39 274.34 186.256V176.877L275.637 178.176L276.935 176.877L278.232 178.176L279.53 176.877L280.827 178.176L282.125 176.877L283.422 178.176L284.72 176.877V186.256C284.718 186.39 284.69 186.523 284.636 186.647C284.583 186.77 284.506 186.882 284.41 186.976C284.314 187.07 284.2 187.144 284.075 187.193C283.95 187.243 283.816 187.268 283.682 187.266ZM280.179 185.967H283.422V184.669H280.179V185.967ZM280.179 183.37H283.422V182.072H280.179V183.37ZM275.637 185.967H278.881V182.072H275.637V185.967ZM275.637 179.474V180.773H283.422V179.474H275.637Z" fill="#C0C0C0"/>
<rect x="278.23" y="145.71" width="2.595" height="24.0241" rx="1.2975" fill="#F1F1F1"/>
<rect x="278.23" y="166.488" width="2.595" height="3.2465" rx="1.2975" fill="#FFAB49"/>
<path fill-rule="evenodd" clip-rule="evenodd" d="M307.059 187.266H298.986C298.68 187.266 298.386 187.144 298.17 186.928C297.954 186.711 297.832 186.418 297.832 186.111V178.032C297.832 177.725 297.954 177.432 298.17 177.215C298.386 176.999 298.68 176.877 298.986 176.877H307.059C307.21 176.877 307.36 176.907 307.5 176.965C307.64 177.023 307.767 177.108 307.874 177.215C307.981 177.322 308.066 177.45 308.124 177.59C308.182 177.73 308.212 177.88 308.212 178.032V186.111C308.212 186.263 308.182 186.413 308.124 186.553C308.066 186.693 307.981 186.821 307.874 186.928C307.767 187.035 307.64 187.12 307.5 187.178C307.36 187.236 307.21 187.266 307.059 187.266ZM305.403 181.757L301.61 179.522C301.555 179.491 301.493 179.475 301.43 179.475C301.367 179.475 301.305 179.492 301.251 179.524C301.197 179.556 301.152 179.602 301.121 179.657C301.09 179.712 301.074 179.774 301.075 179.837V184.305C301.074 184.368 301.09 184.43 301.121 184.485C301.152 184.54 301.197 184.586 301.251 184.618C301.305 184.65 301.367 184.667 301.43 184.668C301.493 184.668 301.555 184.651 301.61 184.62L305.403 182.386C305.457 182.354 305.503 182.308 305.534 182.253C305.565 182.198 305.582 182.135 305.582 182.072C305.582 182.008 305.565 181.946 305.534 181.891C305.503 181.835 305.458 181.789 305.404 181.757H305.403Z" fill="#C0C0C0"/>
<rect x="301.723" y="145.71" width="2.595" height="24.0241" rx="1.2975" fill="#F1F1F1"/>
<rect x="301.723" y="160.645" width="2.595" height="9.09019" rx="1.2975" fill="#FFAB49"/>
<g clip-path="url(#clip0_3097_35726)">
<path fill-rule="evenodd" clip-rule="evenodd" d="M330.549 187.266H322.476C322.324 187.266 322.174 187.236 322.034 187.178C321.894 187.12 321.767 187.035 321.66 186.928C321.553 186.821 321.468 186.693 321.41 186.553C321.352 186.413 321.322 186.263 321.322 186.111V178.032C321.322 177.725 321.444 177.432 321.66 177.215C321.876 176.999 322.17 176.877 322.476 176.877H330.549C330.7 176.877 330.85 176.907 330.99 176.965C331.13 177.023 331.257 177.108 331.365 177.215C331.472 177.322 331.557 177.45 331.615 177.59C331.673 177.73 331.702 177.88 331.702 178.032V186.111C331.702 186.263 331.672 186.413 331.614 186.553C331.556 186.693 331.472 186.821 331.364 186.928C331.257 187.035 331.13 187.12 330.99 187.178C330.85 187.236 330.7 187.266 330.549 187.266ZM330.405 178.176H322.62V185.967H330.405V178.176ZM327.161 182.721H323.269V178.825H327.161V182.721Z" fill="#C0C0C0"/>
</g>
<rect x="325.213" y="145.71" width="2.595" height="24.0241" rx="1.2975" fill="#F1F1F1"/>
<rect x="325.213" y="154.152" width="2.595" height="15.5832" rx="1.2975" fill="#FFAB49"/>
<g clip-path="url(#clip1_3097_35726)">
<path fill-rule="evenodd" clip-rule="evenodd" d="M350.314 177.085L351.393 180.577H354.885C354.951 180.576 355.016 180.597 355.069 180.638C355.123 180.679 355.163 180.737 355.184 180.804C355.204 180.871 355.204 180.943 355.184 181.01C355.163 181.077 355.124 181.135 355.07 181.176L352.245 183.334L353.324 186.827C353.343 186.894 353.342 186.966 353.321 187.033C353.3 187.1 353.26 187.158 353.206 187.199C353.153 187.24 353.088 187.262 353.023 187.261C352.957 187.261 352.893 187.238 352.839 187.197L350.015 185.039L347.19 187.197C347.137 187.238 347.073 187.261 347.007 187.261C346.941 187.262 346.877 187.24 346.823 187.199C346.769 187.158 346.729 187.1 346.708 187.033C346.687 186.966 346.686 186.894 346.706 186.827L347.784 183.334L344.959 181.176C344.906 181.135 344.866 181.077 344.845 181.01C344.825 180.943 344.825 180.871 344.846 180.804C344.866 180.737 344.906 180.679 344.96 180.638C345.014 180.597 345.078 180.576 345.144 180.577H348.636L349.715 177.085C349.736 177.018 349.777 176.96 349.83 176.918C349.884 176.877 349.948 176.855 350.015 176.855C350.081 176.855 350.145 176.877 350.199 176.918C350.253 176.96 350.293 177.018 350.314 177.085Z" fill="#C0C0C0"/>
</g>
<rect x="348.705" y="145.71" width="2.595" height="24.0241" rx="1.2975" fill="#F1F1F1"/>
<g clip-path="url(#clip2_3097_35726)">
<path fill-rule="evenodd" clip-rule="evenodd" d="M377.418 184.652V181.677L373.497 183.803L368.307 180.99L373.497 178.176L378.687 180.989V184.639L377.418 184.652ZM376.718 183.01V184.828L373.497 186.616L370.275 184.825V183.007L373.497 184.741L376.718 183.01Z" fill="#C0C0C0"/>
</g>
<rect x="372.198" y="145.71" width="2.595" height="24.0241" rx="1.2975" fill="#F1F1F1"/>
<path fill-rule="evenodd" clip-rule="evenodd" d="M396.988 176.877C394.123 176.877 391.798 179.204 391.798 182.072C391.798 184.939 394.123 187.266 396.988 187.266C399.853 187.266 402.178 184.939 402.178 182.072C402.178 179.204 399.853 176.877 396.988 176.877ZM397.507 185.708H396.469V184.669H397.507V185.708ZM398.581 181.682L398.114 182.16C397.74 182.539 397.507 182.851 397.507 183.63H396.469V183.37C396.469 182.799 396.702 182.279 397.076 181.9L397.72 181.246C397.912 181.059 398.026 180.799 398.026 180.513C398.026 179.942 397.559 179.474 396.988 179.474C396.417 179.474 395.95 179.942 395.95 180.513H394.912C394.912 179.365 395.841 178.435 396.988 178.435C398.135 178.435 399.064 179.365 399.064 180.513C399.064 180.97 398.877 181.386 398.581 181.682Z" fill="#C0C0C0"/>
<rect x="395.689" y="145.71" width="2.595" height="24.0241" rx="1.2975" fill="#F1F1F1"/>
<rect x="395.689" y="146.36" width="2.595" height="23.3748" rx="1.2975" fill="#FFAB49"/>
<path fill-rule="evenodd" clip-rule="evenodd" d="M424.379 187.266H416.588C416.243 187.266 415.913 187.129 415.669 186.886C415.426 186.642 415.289 186.312 415.289 185.967V178.176C415.289 177.831 415.426 177.501 415.669 177.257C415.913 177.014 416.243 176.877 416.588 176.877H424.379C424.724 176.877 425.054 177.014 425.297 177.257C425.541 177.501 425.678 177.831 425.678 178.176V185.967C425.678 186.312 425.541 186.642 425.297 186.886C425.054 187.129 424.724 187.266 424.379 187.266ZM419.055 180.124H418.01L416.588 184.025H417.51L417.724 183.364H419.354L419.568 184.025H420.49L419.055 180.124ZM423.853 180.624C423.443 180.268 422.909 180.086 422.366 180.119H421.139V184.026H422.243C422.82 184.065 423.389 183.881 423.834 183.512C424.024 183.318 424.17 183.086 424.264 182.832C424.358 182.577 424.397 182.306 424.379 182.035C424.394 181.777 424.355 181.518 424.265 181.275C424.174 181.033 424.034 180.812 423.853 180.626V180.624ZM422.321 183.342H421.827V180.798H422.412C423.152 180.798 423.522 181.217 423.522 182.057C423.551 182.225 423.541 182.397 423.493 182.561C423.444 182.724 423.358 182.874 423.242 182.999C423.125 183.123 422.982 183.219 422.822 183.279C422.662 183.339 422.491 183.361 422.321 183.343V183.342ZM418.542 180.727C418.555 180.792 418.581 180.877 418.613 180.987C418.646 181.096 418.88 181.835 419.152 182.675H417.938C418.224 181.78 418.477 180.955 418.542 180.729V180.727Z" fill="#C0C0C0"/>
<rect x="419.181" y="145.71" width="2.595" height="24.0241" rx="1.2975" fill="#F1F1F1"/>
<rect x="419.181" y="167.138" width="2.595" height="2.5972" rx="1.2975" fill="#FFAB49"/>
<g clip-path="url(#clip3_3097_35726)">
<path fill-rule="evenodd" clip-rule="evenodd" d="M446.891 185.31C446.697 185.308 446.507 185.364 446.345 185.47C446.183 185.577 446.057 185.729 445.981 185.907C445.906 186.086 445.885 186.282 445.921 186.473C445.958 186.663 446.05 186.838 446.187 186.976C446.323 187.114 446.497 187.208 446.687 187.246C446.876 187.285 447.073 187.266 447.252 187.192C447.432 187.119 447.585 186.993 447.693 186.832C447.8 186.671 447.858 186.482 447.858 186.288C447.859 186.16 447.835 186.033 447.787 185.915C447.739 185.796 447.668 185.688 447.578 185.598C447.488 185.507 447.381 185.435 447.263 185.385C447.145 185.336 447.018 185.31 446.891 185.31ZM438.781 176.877V178.159H439.738L441.684 181.86L440.979 183.133C440.897 183.287 440.854 183.458 440.854 183.632C440.854 183.768 440.881 183.903 440.933 184.029C440.985 184.155 441.062 184.27 441.158 184.366C441.254 184.463 441.369 184.539 441.495 184.592C441.621 184.644 441.756 184.671 441.892 184.671H447.857V183.368H442.272C442.238 183.368 442.205 183.354 442.18 183.33C442.156 183.306 442.142 183.273 442.142 183.238C442.141 183.216 442.146 183.193 442.158 183.173L442.423 182.712H446.289C446.474 182.711 446.656 182.661 446.816 182.567C446.975 182.473 447.107 182.339 447.197 182.177L449.096 178.958C449.135 178.877 449.157 178.789 449.161 178.698C449.161 178.561 449.106 178.429 449.009 178.331C448.911 178.234 448.779 178.179 448.642 178.179H441.169L440.478 176.877H438.781ZM441.703 185.31C441.509 185.308 441.319 185.364 441.157 185.47C440.995 185.577 440.868 185.729 440.793 185.907C440.718 186.086 440.697 186.282 440.733 186.473C440.77 186.663 440.862 186.838 440.999 186.976C441.135 187.114 441.309 187.208 441.499 187.246C441.688 187.285 441.885 187.266 442.064 187.192C442.244 187.119 442.397 186.993 442.504 186.832C442.612 186.671 442.67 186.482 442.67 186.288C442.671 186.16 442.647 186.033 442.598 185.914C442.55 185.796 442.479 185.688 442.389 185.597C442.299 185.506 442.192 185.434 442.073 185.385C441.955 185.335 441.829 185.31 441.701 185.31H441.703Z" fill="#C0C0C0"/>
</g>
<rect x="442.673" y="145.71" width="2.595" height="24.0241" rx="1.2975" fill="#F1F1F1"/>
<rect x="442.673" y="164.54" width="2.595" height="5.19439" rx="1.2975" fill="#FFAB49"/>
<path d="M76.2267 146.875V143.015H76.9987V144.887L78.475 143.015H79.1427L77.8047 144.746L79.4661 146.875H78.462L76.9987 144.976V146.875H76.2267ZM82.3509 146.778C81.984 146.886 81.6362 146.94 81.3076 146.94C80.8294 146.94 80.4521 146.804 80.1756 146.533C79.8991 146.262 79.7609 145.892 79.7609 145.422C79.7609 144.979 79.8869 144.622 80.1391 144.353C80.3929 144.081 80.7277 143.946 81.1433 143.946C81.5623 143.946 81.8684 144.078 82.0614 144.342C82.2544 144.607 82.3509 145.025 82.3509 145.597H80.5747C80.6268 146.143 80.9268 146.416 81.4745 146.416C81.7336 146.416 82.0257 146.356 82.3509 146.236V146.778ZM80.5642 145.161H81.5919C81.5919 144.673 81.4345 144.428 81.1198 144.428C80.7998 144.428 80.6146 144.673 80.5642 145.161ZM83.1594 147.905L83.8089 146.875L82.7473 144.011H83.5768L84.2862 145.925L85.1287 144.011H85.7155L83.9471 147.905H83.1594ZM86.7693 146.875L85.9738 144.011H86.691L87.2544 146.017L87.8543 144.011H88.522L89.062 146.027L89.6697 144.011H90.207L89.3567 146.875H88.6159L88.0943 144.911L87.51 146.875H86.7693ZM92.0771 146.94C91.6302 146.94 91.2746 146.805 91.0103 146.536C90.7478 146.264 90.6165 145.9 90.6165 145.443C90.6165 144.98 90.7486 144.615 91.0129 144.347C91.279 144.08 91.6398 143.946 92.0954 143.946C92.5527 143.946 92.9135 144.08 93.1778 144.347C93.4438 144.615 93.5769 144.979 93.5769 145.438C93.5769 145.907 93.4438 146.275 93.1778 146.541C92.9118 146.807 92.5449 146.94 92.0771 146.94ZM92.0901 146.458C92.2988 146.458 92.4614 146.368 92.5779 146.189C92.6961 146.008 92.7553 145.758 92.7553 145.438C92.7553 145.126 92.6961 144.88 92.5779 144.7C92.4614 144.519 92.3005 144.428 92.0954 144.428C91.8919 144.428 91.7311 144.519 91.6128 144.7C91.4963 144.88 91.4381 145.128 91.4381 145.443C91.4381 145.754 91.4963 146.001 91.6128 146.184C91.7293 146.366 91.8884 146.458 92.0901 146.458ZM94.2863 146.875V144.011H95.0584V144.551C95.2583 144.147 95.5626 143.946 95.9712 143.946C96.0199 143.946 96.0678 143.951 96.1147 143.961V144.65C96.0052 144.61 95.9034 144.59 95.8095 144.59C95.5018 144.59 95.2514 144.746 95.0584 145.057V146.875H94.2863ZM98.5195 146.875V146.335C98.3213 146.738 98.0092 146.94 97.5832 146.94C97.2389 146.94 96.9685 146.814 96.772 146.562C96.5755 146.31 96.4773 145.963 96.4773 145.521C96.4773 145.041 96.5877 144.659 96.8085 144.374C97.0311 144.088 97.3293 143.946 97.7031 143.946C98.0022 143.946 98.2744 144.064 98.5195 144.3V142.756H99.2942V146.875H98.5195ZM98.5195 144.76C98.3335 144.551 98.1344 144.447 97.9222 144.447C97.7327 144.447 97.5814 144.538 97.4684 144.72C97.3554 144.903 97.2989 145.148 97.2989 145.456C97.2989 146.042 97.4867 146.335 97.8622 146.335C98.0918 146.335 98.3109 146.188 98.5195 145.894V144.76ZM103.767 146.875V146.335C103.569 146.738 103.257 146.94 102.831 146.94C102.487 146.94 102.216 146.814 102.02 146.562C101.823 146.31 101.725 145.963 101.725 145.521C101.725 145.041 101.836 144.659 102.056 144.374C102.279 144.088 102.577 143.946 102.951 143.946C103.25 143.946 103.522 144.064 103.767 144.3V142.756H104.542V146.875H103.767ZM103.767 144.76C103.581 144.551 103.382 144.447 103.17 144.447C102.981 144.447 102.829 144.538 102.716 144.72C102.603 144.903 102.547 145.148 102.547 145.456C102.547 146.042 102.734 146.335 103.11 146.335C103.34 146.335 103.559 146.188 103.767 145.894V144.76ZM105.507 146.875V144.011H106.279V146.875H105.507ZM105.507 143.528V142.884H106.279V143.528H105.507ZM107.325 146.875V144.493H106.931V144.011H107.325V143.805C107.325 143.062 107.677 142.691 108.381 142.691C108.609 142.691 108.844 142.724 109.086 142.79V143.312C108.867 143.22 108.67 143.174 108.496 143.174C108.35 143.174 108.247 143.219 108.186 143.309C108.127 143.4 108.097 143.555 108.097 143.776V144.011H108.822V144.493H108.097V146.875H107.325ZM109.542 146.875V144.493H109.148V144.011H109.542V143.805C109.542 143.062 109.894 142.691 110.598 142.691C110.826 142.691 111.061 142.724 111.303 142.79V143.312C111.084 143.22 110.887 143.174 110.713 143.174C110.567 143.174 110.464 143.219 110.403 143.309C110.344 143.4 110.314 143.555 110.314 143.776V144.011H111.039V144.493H110.314V146.875H109.542ZM111.678 146.875V144.011H112.45V146.875H111.678ZM111.678 143.528V142.884H112.45V143.528H111.678ZM115.528 146.812C115.208 146.897 114.912 146.94 114.639 146.94C114.181 146.94 113.82 146.806 113.554 146.538C113.289 146.269 113.157 145.903 113.157 145.44C113.157 144.973 113.294 144.607 113.567 144.342C113.84 144.078 114.217 143.946 114.699 143.946C114.932 143.946 115.2 143.983 115.505 144.058V144.616C115.188 144.513 114.935 144.462 114.746 144.462C114.514 144.462 114.328 144.551 114.187 144.728C114.047 144.906 113.976 145.141 113.976 145.435C113.976 145.736 114.052 145.977 114.203 146.158C114.356 146.338 114.56 146.429 114.813 146.429C115.045 146.429 115.283 146.378 115.528 146.278V146.812ZM118.029 146.875V146.335C117.779 146.738 117.454 146.94 117.054 146.94C116.798 146.94 116.597 146.859 116.449 146.697C116.301 146.536 116.227 146.315 116.227 146.035V144.011H116.999V145.845C116.999 146.17 117.108 146.332 117.325 146.332C117.569 146.332 117.803 146.159 118.029 145.813V144.011H118.801V146.875H118.029ZM119.769 146.875V142.756H120.541V146.875H119.769ZM122.982 146.859C122.798 146.913 122.653 146.94 122.547 146.94C122.197 146.94 121.943 146.865 121.783 146.716C121.623 146.566 121.543 146.328 121.543 146.001V144.493H121.222V144.011H121.543V143.528L122.315 143.44V144.011H122.928V144.493H122.315V145.899C122.315 146.251 122.458 146.426 122.745 146.426C122.811 146.426 122.89 146.414 122.982 146.39V146.859ZM123.681 147.905L124.331 146.875L123.269 144.011H124.099L124.808 145.925L125.651 144.011H126.238L124.469 147.905H123.681Z" fill="#1B1B1B"/>
<mask id="mask1_3097_35726" style="mask-type:alpha" maskUnits="userSpaceOnUse" x="75" y="155" width="32" height="33">
<path fill-rule="evenodd" clip-rule="evenodd" d="M91.2706 187.066C99.8456 187.066 106.797 180.108 106.797 171.526C106.797 162.944 99.8456 155.986 91.2706 155.986C82.6956 155.986 75.7441 162.944 75.7441 171.526C75.7441 180.108 82.6956 187.066 91.2706 187.066ZM91.27 182.625C97.395 182.625 102.36 177.656 102.36 171.526C102.36 165.395 97.395 160.426 91.27 160.426C85.145 160.426 80.1797 165.395 80.1797 171.526C80.1797 177.656 85.145 182.625 91.27 182.625Z" fill="#DFDFDF"/>
</mask>
<g mask="url(#mask1_3097_35726)">
<path fill-rule="evenodd" clip-rule="evenodd" d="M106.797 171.526C106.797 180.108 99.8456 187.066 91.2706 187.066C82.6956 187.066 75.7441 180.108 75.7441 171.526C75.7441 162.944 82.6956 155.986 91.2706 155.986C99.8456 155.986 106.797 162.944 106.797 171.526Z" fill="#E8E8E8"/>
<path d="M91.1415 155.76V171.06C91.1415 171.363 91.0469 171.659 90.8711 171.905L78.0417 189.911C77.2554 191.015 78.2697 192.5 79.5837 192.169L107.507 185.141C108.155 184.978 108.609 184.396 108.609 183.728V155.76C108.609 154.955 107.956 154.303 107.152 154.303H92.5983C91.7937 154.303 91.1415 154.955 91.1415 155.76Z" fill="#6DBC00" stroke="white" stroke-width="0.485612"/>
</g>
<path d="M123.323 175.727V172.548H118.269V171.418L123.323 164.498H124.726V171.327H126.229V172.548H124.726V175.727H123.323ZM119.734 171.327H123.421V166.334L119.734 171.327ZM133.156 175.727V172.548H128.103V171.418L133.156 164.498H134.56V171.327H136.062V172.548H134.56V175.727H133.156ZM129.567 171.327H133.255V166.334L129.567 171.327ZM138.657 175.727V173.853H140.532V175.727H138.657ZM143.347 175.727V174.415C143.782 173.398 144.662 172.29 145.987 171.091L146.845 170.325C147.947 169.328 148.499 168.34 148.499 167.358C148.499 166.731 148.309 166.238 147.93 165.879C147.555 165.519 147.039 165.34 146.382 165.34C145.603 165.34 144.685 165.641 143.627 166.243V164.923C144.624 164.452 145.613 164.217 146.594 164.217C147.646 164.217 148.491 164.5 149.128 165.067C149.766 165.633 150.085 166.384 150.085 167.32C150.085 167.993 149.923 168.59 149.599 169.111C149.28 169.632 148.683 170.264 147.808 171.008L147.232 171.501C146.033 172.518 145.34 173.489 145.153 174.415H150.031V175.727H143.347Z" fill="#1B1B1B"/>
<rect x="67.6289" y="70" width="382.421" height="54.6315" rx="4.37053" fill="#F8F8F8"/>
<rect x="76.3691" y="78.741" width="17.4821" height="17.4821" rx="2.18526" fill="#6DBC00"/>
<path d="M80.2491 90.2042V83.8874H82.396C83.0305 83.8874 83.5128 84.0069 83.8429 84.2459C84.1758 84.485 84.3422 84.8335 84.3422 85.2916C84.3422 86.0513 83.8372 86.5891 82.8271 86.905C84.0079 87.1923 84.5983 87.7714 84.5983 88.6421C84.5983 89.1457 84.4247 89.5327 84.0776 89.803C83.7333 90.0705 83.2382 90.2042 82.5923 90.2042H80.2491ZM81.5125 86.5166H81.7984C82.1683 86.5166 82.4614 86.4255 82.6777 86.2434C82.8968 86.0613 83.0063 85.8137 83.0063 85.5008C83.0063 85.2105 82.9181 85.0142 82.7417 84.9118C82.5681 84.8065 82.2381 84.7538 81.7515 84.7538H81.5125V86.5166ZM81.5125 89.3079H81.7686C82.3206 89.3079 82.7004 89.2496 82.9081 89.1329C83.1187 89.0134 83.224 88.7971 83.224 88.4842C83.224 88.1626 83.0831 87.8952 82.8014 87.6818C82.5226 87.4683 82.1698 87.3616 81.743 87.3616H81.5125V89.3079ZM85.755 91.8901V85.5178H87.0183V86.4013C87.3427 85.7412 87.8534 85.4111 88.5506 85.4111C89.114 85.4111 89.5564 85.6174 89.8779 86.03C90.2023 86.4426 90.3645 87.0102 90.3645 87.733C90.3645 88.5183 90.1824 89.1443 89.8182 89.6109C89.454 90.0776 88.966 90.3109 88.3542 90.3109C87.862 90.3109 87.4167 90.1174 87.0183 89.7304V91.8901H85.755ZM87.0183 88.9793C87.3256 89.3207 87.6528 89.4914 88 89.4914C88.3101 89.4914 88.5577 89.342 88.7426 89.0433C88.9276 88.7417 89.0201 88.3405 89.0201 87.8397C89.0201 86.8808 88.7113 86.4013 88.0939 86.4013C87.7211 86.4013 87.3626 86.6418 87.0183 87.1226V88.9793Z" fill="white"/>
<path d="M103.381 89.9821V83.2428H104.645V86.1792C104.969 85.5191 105.48 85.189 106.177 85.189C106.74 85.189 107.183 85.3953 107.504 85.8079C107.829 86.2205 107.991 86.7881 107.991 87.5109C107.991 88.2933 107.809 88.9193 107.445 89.3888C107.08 89.8555 106.594 90.0888 105.985 90.0888C105.461 90.0888 105.015 89.8953 104.645 89.5083L104.41 89.9821H103.381ZM104.645 88.7571C104.952 89.0986 105.279 89.2693 105.626 89.2693C105.937 89.2693 106.184 89.1199 106.369 88.8212C106.554 88.5195 106.646 88.1183 106.646 87.6176C106.646 86.6587 106.338 86.1792 105.72 86.1792C105.348 86.1792 104.989 86.4196 104.645 86.9005V88.7571ZM112.993 89.8242C112.393 90.0006 111.824 90.0888 111.286 90.0888C110.503 90.0888 109.886 89.8668 109.434 89.423C108.981 88.9791 108.755 88.373 108.755 87.6048C108.755 86.8792 108.961 86.2959 109.374 85.8548C109.789 85.411 110.337 85.189 111.017 85.189C111.703 85.189 112.204 85.4053 112.519 85.8378C112.835 86.2703 112.993 86.9546 112.993 87.8907H110.087C110.172 88.7842 110.663 89.2309 111.559 89.2309C111.983 89.2309 112.461 89.1327 112.993 88.9364V89.8242ZM110.069 87.1779H111.751C111.751 86.3784 111.494 85.9786 110.979 85.9786C110.455 85.9786 110.152 86.3784 110.069 87.1779ZM114.175 89.8327V88.9065C114.801 89.1683 115.336 89.2992 115.78 89.2992C116.298 89.2992 116.557 89.1228 116.557 88.7699C116.557 88.5423 116.344 88.3431 115.917 88.1724L115.49 88.0017C115.026 87.8139 114.695 87.6119 114.496 87.3956C114.296 87.1794 114.197 86.9119 114.197 86.5932C114.197 86.1493 114.366 85.805 114.705 85.5603C115.043 85.3128 115.517 85.189 116.126 85.189C116.507 85.189 116.961 85.2445 117.487 85.3555V86.2432C116.981 86.0668 116.561 85.9786 116.228 85.9786C115.705 85.9786 115.443 86.1408 115.443 86.4652C115.443 86.6786 115.637 86.8593 116.023 87.0072L116.391 87.1481C116.94 87.3558 117.321 87.5663 117.534 87.7797C117.751 87.9931 117.859 88.2677 117.859 88.6035C117.859 89.0445 117.675 89.403 117.308 89.679C116.944 89.9522 116.469 90.0888 115.883 90.0888C115.319 90.0888 114.75 90.0034 114.175 89.8327ZM121.657 89.9565C121.356 90.0447 121.118 90.0888 120.945 90.0888C120.373 90.0888 119.956 89.9664 119.694 89.7217C119.432 89.477 119.301 89.0872 119.301 88.5523V86.0853H118.776V85.2957H119.301V84.5061L120.565 84.361V85.2957H121.568V86.0853H120.565V88.3858C120.565 88.9606 120.799 89.248 121.269 89.248C121.377 89.248 121.507 89.228 121.657 89.1882V89.9565ZM122.784 89.9821V85.2957H124.047V86.1792C124.375 85.5191 124.873 85.189 125.541 85.189C125.621 85.189 125.699 85.1975 125.776 85.2146V86.3414C125.597 86.276 125.43 86.2432 125.277 86.2432C124.773 86.2432 124.363 86.4979 124.047 87.0072V89.9821H122.784ZM130.578 89.8242C129.977 90.0006 129.408 90.0888 128.87 90.0888C128.088 90.0888 127.471 89.8668 127.018 89.423C126.566 88.9791 126.339 88.373 126.339 87.6048C126.339 86.8792 126.546 86.2959 126.958 85.8548C127.374 85.411 127.921 85.189 128.602 85.189C129.287 85.189 129.788 85.4053 130.104 85.8378C130.42 86.2703 130.578 86.9546 130.578 87.8907H127.671C127.756 88.7842 128.247 89.2309 129.144 89.2309C129.568 89.2309 130.046 89.1327 130.578 88.9364V89.8242ZM127.654 87.1779H129.336C129.336 86.3784 129.078 85.9786 128.563 85.9786C128.04 85.9786 127.737 86.3784 127.654 87.1779ZM135.341 89.8796C134.817 90.0191 134.332 90.0888 133.885 90.0888C133.137 90.0888 132.545 89.8697 132.11 89.4315C131.677 88.9905 131.461 88.3915 131.461 87.6346C131.461 86.8692 131.685 86.2703 132.131 85.8378C132.578 85.4053 133.195 85.189 133.984 85.189C134.365 85.189 134.805 85.2502 135.302 85.3725V86.2859C134.785 86.118 134.371 86.0341 134.06 86.0341C133.682 86.0341 133.378 86.1792 133.147 86.4694C132.917 86.7597 132.801 87.1452 132.801 87.6261C132.801 88.1183 132.925 88.5124 133.173 88.8084C133.423 89.1043 133.756 89.2522 134.171 89.2522C134.55 89.2522 134.94 89.1697 135.341 89.0047V89.8796ZM136.536 89.9821V85.2957H137.799V89.9821H136.536ZM136.536 84.5061V83.4519H137.799V84.5061H136.536ZM139.378 91.668V85.2957H140.642V86.1792C140.966 85.5191 141.477 85.189 142.174 85.189C142.737 85.189 143.18 85.3953 143.501 85.8079C143.826 86.2205 143.988 86.7881 143.988 87.5109C143.988 88.2962 143.806 88.9222 143.442 89.3888C143.077 89.8555 142.59 90.0888 141.978 90.0888C141.485 90.0888 141.04 89.8953 140.642 89.5083V91.668H139.378ZM140.642 88.7571C140.949 89.0986 141.276 89.2693 141.623 89.2693C141.934 89.2693 142.181 89.1199 142.366 88.8212C142.551 88.5195 142.644 88.1183 142.644 87.6176C142.644 86.6587 142.335 86.1792 141.717 86.1792C141.345 86.1792 140.986 86.4196 140.642 86.9005V88.7571ZM148.99 89.8242C148.39 90.0006 147.821 90.0888 147.283 90.0888C146.5 90.0888 145.883 89.8668 145.431 89.423C144.978 88.9791 144.752 88.373 144.752 87.6048C144.752 86.8792 144.958 86.2959 145.371 85.8548C145.786 85.411 146.334 85.189 147.014 85.189C147.7 85.189 148.201 85.4053 148.516 85.8378C148.832 86.2703 148.99 86.9546 148.99 87.8907H146.084C146.169 88.7842 146.66 89.2309 147.556 89.2309C147.98 89.2309 148.458 89.1327 148.99 88.9364V89.8242ZM146.067 87.1779H147.748C147.748 86.3784 147.491 85.9786 146.976 85.9786C146.452 85.9786 146.149 86.3784 146.067 87.1779ZM150.172 89.8327V88.9065C150.798 89.1683 151.333 89.2992 151.777 89.2992C152.295 89.2992 152.554 89.1228 152.554 88.7699C152.554 88.5423 152.341 88.3431 151.914 88.1724L151.487 88.0017C151.023 87.8139 150.692 87.6119 150.493 87.3956C150.293 87.1794 150.194 86.9119 150.194 86.5932C150.194 86.1493 150.363 85.805 150.702 85.5603C151.04 85.3128 151.514 85.189 152.123 85.189C152.504 85.189 152.958 85.2445 153.485 85.3555V86.2432C152.978 86.0668 152.558 85.9786 152.225 85.9786C151.702 85.9786 151.44 86.1408 151.44 86.4652C151.44 86.6786 151.634 86.8593 152.021 87.0072L152.388 87.1481C152.937 87.3558 153.318 87.5663 153.531 87.7797C153.748 87.9931 153.856 88.2677 153.856 88.6035C153.856 89.0445 153.672 89.403 153.305 89.679C152.941 89.9522 152.466 90.0888 151.88 90.0888C151.316 90.0888 150.747 90.0034 150.172 89.8327ZM154.846 89.9821V88.612H156.216V89.9821H154.846ZM160.856 89.8796C160.332 90.0191 159.847 90.0888 159.4 90.0888C158.652 90.0888 158.06 89.8697 157.625 89.4315C157.192 88.9905 156.976 88.3915 156.976 87.6346C156.976 86.8692 157.199 86.2703 157.646 85.8378C158.093 85.4053 158.71 85.189 159.498 85.189C159.88 85.189 160.319 85.2502 160.817 85.3725V86.2859C160.299 86.118 159.885 86.0341 159.575 86.0341C159.197 86.0341 158.892 86.1792 158.662 86.4694C158.431 86.7597 158.316 87.1452 158.316 87.6261C158.316 88.1183 158.44 88.5124 158.687 88.8084C158.938 89.1043 159.271 89.2522 159.686 89.2522C160.064 89.2522 160.454 89.1697 160.856 89.0047V89.8796ZM164.018 90.0888C163.287 90.0888 162.705 89.8683 162.273 89.4272C161.843 88.9833 161.628 88.3872 161.628 87.6389C161.628 86.882 161.844 86.2845 162.277 85.8463C162.712 85.4081 163.303 85.189 164.048 85.189C164.796 85.189 165.387 85.4081 165.819 85.8463C166.255 86.2845 166.472 86.8792 166.472 87.6304C166.472 88.3986 166.255 89.0004 165.819 89.4358C165.384 89.8711 164.784 90.0888 164.018 90.0888ZM164.04 89.2992C164.381 89.2992 164.647 89.1526 164.838 88.8596C165.031 88.5636 165.128 88.1539 165.128 87.6304C165.128 87.121 165.031 86.7184 164.838 86.4225C164.647 86.1266 164.384 85.9786 164.048 85.9786C163.715 85.9786 163.452 86.1266 163.258 86.4225C163.068 86.7184 162.972 87.1239 162.972 87.6389C162.972 88.1482 163.068 88.5523 163.258 88.851C163.449 89.1498 163.709 89.2992 164.04 89.2992ZM167.633 89.9821V85.2957H168.845V86.1792C169.215 85.5191 169.742 85.189 170.425 85.189C170.777 85.189 171.068 85.2758 171.295 85.4494C171.523 85.6229 171.662 85.8662 171.714 86.1792C172.152 85.5191 172.681 85.189 173.301 85.189C174.158 85.189 174.586 85.6613 174.586 86.606V89.9821H173.374V87.02C173.374 86.4652 173.189 86.1877 172.819 86.1877C172.441 86.1877 172.072 86.4609 171.714 87.0072V89.9821H170.501V87.02C170.501 86.4623 170.315 86.1835 169.942 86.1835C169.57 86.1835 169.204 86.4581 168.845 87.0072V89.9821H167.633Z" fill="#303030"/>
<rect width="32.779" height="4.37052" rx="2.18526" transform="matrix(-1 0 0 1 109.148 104.964)" fill="#E7E7E7"/>
<rect opacity="0.7" width="54.6316" height="4.37052" rx="2.18526" transform="matrix(-1 0 0 1 170.336 104.964)" fill="#6DBC00"/>
<rect width="43.7053" height="4.37052" rx="2.18526" transform="matrix(-1 0 0 1 220.596 104.964)" fill="#E7E7E7"/>
<rect opacity="0.7" width="32.779" height="4.37052" rx="2.18526" transform="matrix(-1 0 0 1 259.932 104.964)" fill="#6DBC00"/>
<rect width="21.8526" height="4.37052" rx="2.18526" transform="matrix(-1 0 0 1 288.34 104.964)" fill="#E7E7E7"/>
<rect width="32.779" height="4.37052" rx="2.18526" transform="matrix(-1 0 0 1 327.674 104.964)" fill="#6DBC00"/>
<rect x="125.537" y="113.705" width="43.7053" height="4.37052" rx="2.18526" fill="#E7E7E7"/>
<rect x="75.2754" y="113.705" width="43.7053" height="4.37052" rx="2.18526" fill="#E7E7E7"/>
</g>
<g filter="url(#filter1_d_3097_35726)">
<rect x="218.953" y="24.5" width="209.785" height="127.838" rx="17.4821" fill="white"/>
<path d="M237.519 50.982V42.2965H239.256V46.5101L242.578 42.2965H244.08L241.07 46.1932L244.808 50.982H242.549L239.256 46.7097V50.982H237.519ZM251.299 50.7649C250.473 51.0075 249.691 51.1288 248.951 51.1288C247.875 51.1288 247.026 50.8236 246.404 50.2133C245.782 49.6029 245.471 48.7696 245.471 47.7132C245.471 46.7155 245.755 45.9135 246.322 45.3071C246.893 44.6967 247.647 44.3916 248.582 44.3916C249.525 44.3916 250.213 44.6889 250.647 45.2836C251.082 45.8783 251.299 46.8192 251.299 48.1064H247.302C247.42 49.3349 248.095 49.9492 249.327 49.9492C249.91 49.9492 250.567 49.8142 251.299 49.5442V50.7649ZM247.279 47.1264H249.591C249.591 46.027 249.237 45.4773 248.529 45.4773C247.809 45.4773 247.392 46.027 247.279 47.1264ZM253.118 53.3001L254.579 50.982L252.191 44.5383H254.057L255.653 48.8459L257.549 44.5383H258.869L254.89 53.3001H253.118ZM261.24 50.982L259.45 44.5383H261.064L262.332 49.0513L263.682 44.5383H265.184L266.399 49.0747L267.766 44.5383H268.975L267.062 50.982H265.395L264.222 46.563L262.907 50.982H261.24ZM273.183 51.1288C272.177 51.1288 271.377 50.8255 270.783 50.2191C270.192 49.6088 269.896 48.7891 269.896 47.7602C269.896 46.7195 270.194 45.8979 270.789 45.2953C271.387 44.6928 272.199 44.3916 273.224 44.3916C274.253 44.3916 275.065 44.6928 275.659 45.2953C276.258 45.8979 276.557 46.7155 276.557 47.7484C276.557 48.8048 276.258 49.6323 275.659 50.2309C275.061 50.8295 274.235 51.1288 273.183 51.1288ZM273.212 50.0431C273.682 50.0431 274.048 49.8416 274.31 49.4386C274.576 49.0317 274.709 48.4683 274.709 47.7484C274.709 47.0481 274.576 46.4945 274.31 46.0876C274.048 45.6807 273.686 45.4773 273.224 45.4773C272.766 45.4773 272.404 45.6807 272.138 46.0876C271.876 46.4945 271.745 47.052 271.745 47.7602C271.745 48.4605 271.876 49.0161 272.138 49.4269C272.4 49.8377 272.758 50.0431 273.212 50.0431ZM278.154 50.982V44.5383H279.891V45.7531C280.341 44.8454 281.025 44.3916 281.945 44.3916C282.054 44.3916 282.162 44.4033 282.268 44.4268V45.9761C282.021 45.8861 281.792 45.8411 281.581 45.8411C280.888 45.8411 280.325 46.1913 279.891 46.8916V50.982H278.154ZM287.678 50.982V49.7672C287.232 50.6749 286.53 51.1288 285.572 51.1288C284.797 51.1288 284.189 50.8451 283.746 50.2778C283.304 49.7105 283.083 48.93 283.083 47.9362C283.083 46.8564 283.332 45.9957 283.829 45.354C284.329 44.7124 285 44.3916 285.842 44.3916C286.514 44.3916 287.127 44.6576 287.678 45.1897V41.7155H289.421V50.982H287.678ZM287.678 46.2226C287.26 45.7531 286.812 45.5183 286.335 45.5183C285.908 45.5183 285.568 45.7238 285.313 46.1346C285.059 46.5454 284.932 47.097 284.932 47.7895C284.932 49.108 285.354 49.7672 286.2 49.7672C286.716 49.7672 287.209 49.4366 287.678 48.7754V46.2226ZM299.486 50.982V49.7672C299.04 50.6749 298.338 51.1288 297.379 51.1288C296.605 51.1288 295.996 50.8451 295.554 50.2778C295.112 49.7105 294.891 48.93 294.891 47.9362C294.891 46.8564 295.139 45.9957 295.636 45.354C296.137 44.7124 296.808 44.3916 297.649 44.3916C298.322 44.3916 298.934 44.6576 299.486 45.1897V41.7155H301.229V50.982H299.486ZM299.486 46.2226C299.067 45.7531 298.62 45.5183 298.142 45.5183C297.716 45.5183 297.375 45.7238 297.121 46.1346C296.867 46.5454 296.74 47.097 296.74 47.7895C296.74 49.108 297.162 49.7672 298.007 49.7672C298.524 49.7672 299.017 49.4366 299.486 48.7754V46.2226ZM303.4 50.982V44.5383H305.138V50.982H303.4ZM303.4 43.4526V42.003H305.138V43.4526H303.4ZM307.491 50.982V45.624H306.605V44.5383H307.491V44.0747C307.491 42.4041 308.283 41.5688 309.868 41.5688C310.38 41.5688 310.908 41.6431 311.452 41.7918V42.9655C310.959 42.7581 310.517 42.6545 310.126 42.6545C309.797 42.6545 309.564 42.7562 309.428 42.9596C309.295 43.1631 309.228 43.5132 309.228 44.0101V44.5383H310.86V45.624H309.228V50.982H307.491ZM312.479 50.982V45.624H311.593V44.5383H312.479V44.0747C312.479 42.4041 313.272 41.5688 314.856 41.5688C315.369 41.5688 315.897 41.6431 316.441 41.7918V42.9655C315.948 42.7581 315.506 42.6545 315.114 42.6545C314.786 42.6545 314.553 42.7562 314.416 42.9596C314.283 43.1631 314.216 43.5132 314.216 44.0101V44.5383H315.848V45.624H314.216V50.982H312.479ZM317.286 50.982V44.5383H319.023V50.982H317.286ZM317.286 43.4526V42.003H319.023V43.4526H317.286ZM325.948 50.8412C325.228 51.0329 324.561 51.1288 323.947 51.1288C322.918 51.1288 322.104 50.8275 321.505 50.225C320.911 49.6186 320.613 48.795 320.613 47.7543C320.613 46.7019 320.92 45.8783 321.535 45.2836C322.149 44.6889 322.998 44.3916 324.082 44.3916C324.606 44.3916 325.21 44.4757 325.895 44.6439V45.8998C325.183 45.669 324.614 45.5536 324.187 45.5536C323.667 45.5536 323.248 45.7531 322.931 46.1522C322.614 46.5512 322.456 47.0814 322.456 47.7426C322.456 48.4194 322.626 48.9613 322.966 49.3682C323.311 49.7751 323.769 49.9785 324.34 49.9785C324.86 49.9785 325.396 49.865 325.948 49.6381V50.8412ZM331.576 50.982V49.7672C331.012 50.6749 330.281 51.1288 329.381 51.1288C328.806 51.1288 328.352 50.9468 328.019 50.583C327.687 50.2191 327.521 49.7222 327.521 49.0923V44.5383H329.258V48.6639C329.258 49.3956 329.502 49.7614 329.991 49.7614C330.539 49.7614 331.067 49.3721 331.576 48.5935V44.5383H333.313V50.982H331.576ZM335.49 50.982V41.7155H337.227V50.982H335.49ZM342.72 50.9468C342.306 51.0681 341.979 51.1288 341.74 51.1288C340.954 51.1288 340.381 50.9605 340.021 50.6241C339.661 50.2876 339.481 49.7516 339.481 49.0161V45.624H338.759V44.5383H339.481V43.4526L341.218 43.2531V44.5383H342.597V45.624H341.218V48.7872C341.218 49.5775 341.541 49.9726 342.186 49.9726C342.335 49.9726 342.513 49.9452 342.72 49.8905V50.9468ZM344.293 53.3001L345.754 50.982L343.366 44.5383H345.232L346.828 48.8459L348.724 44.5383H350.044L346.065 53.3001H344.293Z" fill="#1B1B1B"/>
<mask id="mask2_3097_35726" style="mask-type:alpha" maskUnits="userSpaceOnUse" x="236" y="67" width="66" height="66">
<path fill-rule="evenodd" clip-rule="evenodd" d="M269.213 132.651C287.316 132.651 301.992 117.976 301.992 99.8725C301.992 81.7692 287.316 67.0936 269.213 67.0936C251.109 67.0936 236.434 81.7692 236.434 99.8725C236.434 117.976 251.109 132.651 269.213 132.651ZM269.214 123.286C282.145 123.286 292.627 112.803 292.627 99.8723C292.627 86.9413 282.145 76.4587 269.214 76.4587C256.283 76.4587 245.8 86.9413 245.8 99.8723C245.8 112.803 256.283 123.286 269.214 123.286Z" fill="#DFDFDF"/>
</mask>
<g mask="url(#mask2_3097_35726)">
<path fill-rule="evenodd" clip-rule="evenodd" d="M301.992 99.8726C301.992 117.976 287.316 132.651 269.213 132.651C251.109 132.651 236.434 117.976 236.434 99.8726C236.434 81.7693 251.109 67.0936 269.213 67.0936C287.316 67.0936 301.992 81.7693 301.992 99.8726Z" fill="#E8E8E8"/>
<path d="M268.94 66.8203V98.8234C268.94 99.5057 268.727 100.171 268.331 100.727L241.608 138.2C239.837 140.683 242.119 144.026 245.076 143.282L303.338 128.631C304.795 128.265 305.816 126.954 305.816 125.452V66.8203C305.816 65.01 304.349 63.5424 302.538 63.5424H272.218C270.408 63.5424 268.94 65.01 268.94 66.8203Z" fill="#64A531" stroke="white" stroke-width="1.09263"/>
</g>
<path d="M337.008 109.576V102.422H325.638V99.8786L337.008 84.3086H340.167V99.6737H343.547V102.422H340.167V109.576H337.008ZM328.933 99.6737H337.23V88.4401L328.933 99.6737ZM359.134 109.576V102.422H347.764V99.8786L359.134 84.3086H362.293V99.6737H365.673V102.422H362.293V109.576H359.134ZM351.059 99.6737H359.356V88.4401L351.059 99.6737ZM371.512 109.576V105.359H375.729V109.576H371.512ZM382.062 109.576V106.622C383.041 104.334 385.022 101.842 388.004 99.1445L389.933 97.4201C392.414 95.178 393.655 92.9529 393.655 90.7448C393.655 89.3335 393.228 88.2238 392.374 87.4157C391.532 86.6076 390.371 86.2036 388.891 86.2036C387.139 86.2036 385.073 86.8808 382.694 88.2352V85.2646C384.936 84.2061 387.161 83.6769 389.369 83.6769C391.737 83.6769 393.638 84.3143 395.072 85.589C396.506 86.8637 397.223 88.5539 397.223 90.6595C397.223 92.1732 396.859 93.5163 396.13 94.6886C395.413 95.8609 394.07 97.2836 392.101 98.9567L390.804 100.066C388.106 102.354 386.547 104.539 386.126 106.622H397.103V109.576H382.062Z" fill="#1B1B1B"/>
</g>
<g filter="url(#filter2_d_3097_35726)">
<rect x="318.215" y="213.525" width="209.785" height="127.838" rx="17.4821" fill="white"/>
<path d="M336.781 240.007V231.322H342.209V232.513H338.589V234.937H341.558V236.134H338.589V238.775H342.485V240.007H336.781ZM343.829 239.802V238.528C344.69 238.888 345.425 239.068 346.036 239.068C346.748 239.068 347.104 238.826 347.104 238.341C347.104 238.028 346.81 237.754 346.224 237.519L345.637 237.284C344.999 237.026 344.543 236.748 344.269 236.451C343.996 236.154 343.859 235.786 343.859 235.348C343.859 234.737 344.091 234.264 344.557 233.927C345.023 233.587 345.674 233.417 346.511 233.417C347.035 233.417 347.659 233.493 348.383 233.646V234.866C347.687 234.624 347.11 234.503 346.652 234.503C345.932 234.503 345.572 234.726 345.572 235.172C345.572 235.465 345.838 235.713 346.37 235.917L346.875 236.111C347.63 236.396 348.154 236.686 348.448 236.979C348.745 237.272 348.894 237.65 348.894 238.112C348.894 238.718 348.642 239.211 348.137 239.591C347.636 239.966 346.983 240.154 346.177 240.154C345.402 240.154 344.62 240.037 343.829 239.802ZM354.117 239.972C353.702 240.093 353.376 240.154 353.137 240.154C352.35 240.154 351.777 239.986 351.417 239.649C351.057 239.313 350.877 238.777 350.877 238.041V234.649H350.156V233.564H350.877V232.478L352.615 232.278V233.564H353.994V234.649H352.615V237.812C352.615 238.603 352.937 238.998 353.583 238.998C353.732 238.998 353.91 238.97 354.117 238.916V239.972ZM355.666 240.007V233.564H357.403V240.007H355.666ZM355.666 232.478V231.028H357.403V232.478H355.666ZM359.575 240.007V233.564H361.241V234.778C361.75 233.871 362.474 233.417 363.413 233.417C363.898 233.417 364.297 233.536 364.61 233.775C364.923 234.013 365.115 234.348 365.185 234.778C365.788 233.871 366.515 233.417 367.368 233.417C368.546 233.417 369.135 234.066 369.135 235.365V240.007H367.468V235.934C367.468 235.172 367.214 234.79 366.705 234.79C366.185 234.79 365.678 235.166 365.185 235.917V240.007H363.518V235.934C363.518 235.168 363.262 234.784 362.75 234.784C362.237 234.784 361.734 235.162 361.241 235.917V240.007H359.575ZM374.387 239.315C373.808 239.874 373.188 240.154 372.527 240.154C371.963 240.154 371.506 239.982 371.154 239.638C370.801 239.293 370.625 238.847 370.625 238.3C370.625 237.587 370.909 237.04 371.476 236.656C372.048 236.269 372.863 236.075 373.924 236.075H374.387V235.488C374.387 234.819 374.006 234.485 373.243 234.485C372.566 234.485 371.881 234.677 371.189 235.06V233.863C371.975 233.565 372.754 233.417 373.524 233.417C375.211 233.417 376.054 234.088 376.054 235.43V238.282C376.054 238.787 376.208 239.039 376.517 239.039C376.588 239.039 376.686 239.017 376.811 238.974V239.99C376.443 240.099 376.118 240.154 375.837 240.154C375.125 240.154 374.667 239.874 374.463 239.315H374.387ZM374.387 238.382V237.073H373.976C373.452 237.073 373.039 237.167 372.738 237.355C372.441 237.542 372.292 237.801 372.292 238.129C372.292 238.368 372.372 238.569 372.533 238.734C372.697 238.894 372.898 238.974 373.137 238.974C373.544 238.974 373.961 238.777 374.387 238.382ZM381.617 239.972C381.203 240.093 380.876 240.154 380.637 240.154C379.851 240.154 379.278 239.986 378.918 239.649C378.558 239.313 378.378 238.777 378.378 238.041V234.649H377.656V233.564H378.378V232.478L380.115 232.278V233.564H381.494V234.649H380.115V237.812C380.115 238.603 380.438 238.998 381.083 238.998C381.232 238.998 381.41 238.97 381.617 238.916V239.972ZM388.413 239.79C387.588 240.033 386.805 240.154 386.066 240.154C384.99 240.154 384.141 239.849 383.519 239.238C382.897 238.628 382.586 237.795 382.586 236.738C382.586 235.741 382.869 234.939 383.437 234.332C384.008 233.722 384.761 233.417 385.696 233.417C386.639 233.417 387.327 233.714 387.762 234.309C388.196 234.904 388.413 235.844 388.413 237.132H384.417C384.534 238.36 385.209 238.974 386.441 238.974C387.024 238.974 387.682 238.839 388.413 238.569V239.79ZM384.393 236.152H386.705C386.705 235.052 386.351 234.503 385.643 234.503C384.923 234.503 384.507 235.052 384.393 236.152ZM394.264 240.007V238.792C393.818 239.7 393.116 240.154 392.157 240.154C391.383 240.154 390.774 239.87 390.332 239.303C389.89 238.736 389.669 237.955 389.669 236.961C389.669 235.882 389.918 235.021 390.414 234.379C390.915 233.738 391.586 233.417 392.427 233.417C393.1 233.417 393.713 233.683 394.264 234.215V230.741H396.007V240.007H394.264ZM394.264 235.248C393.846 234.778 393.398 234.544 392.92 234.544C392.494 234.544 392.153 234.749 391.899 235.16C391.645 235.571 391.518 236.122 391.518 236.815C391.518 238.133 391.94 238.792 392.785 238.792C393.302 238.792 393.795 238.462 394.264 237.801V235.248ZM405.338 239.972C404.924 240.093 404.597 240.154 404.358 240.154C403.572 240.154 402.999 239.986 402.639 239.649C402.279 239.313 402.099 238.777 402.099 238.041V234.649H401.377V233.564H402.099V232.478L403.836 232.278V233.564H405.215V234.649H403.836V237.812C403.836 238.603 404.159 238.998 404.804 238.998C404.953 238.998 405.131 238.97 405.338 238.916V239.972ZM406.888 240.007V233.564H408.625V234.778C409.075 233.871 409.759 233.417 410.679 233.417C410.788 233.417 410.896 233.429 411.002 233.452V235.001C410.755 234.911 410.526 234.866 410.315 234.866C409.622 234.866 409.059 235.217 408.625 235.917V240.007H406.888ZM415.514 239.315C414.935 239.874 414.315 240.154 413.654 240.154C413.091 240.154 412.633 239.982 412.281 239.638C411.929 239.293 411.753 238.847 411.753 238.3C411.753 237.587 412.036 237.04 412.604 236.656C413.175 236.269 413.991 236.075 415.051 236.075H415.514V235.488C415.514 234.819 415.133 234.485 414.37 234.485C413.693 234.485 413.009 234.677 412.316 235.06V233.863C413.102 233.565 413.881 233.417 414.652 233.417C416.338 233.417 417.181 234.088 417.181 235.43V238.282C417.181 238.787 417.336 239.039 417.645 239.039C417.715 239.039 417.813 239.017 417.938 238.974V239.99C417.57 240.099 417.246 240.154 416.964 240.154C416.252 240.154 415.794 239.874 415.591 239.315H415.514ZM415.514 238.382V237.073H415.104C414.579 237.073 414.167 237.167 413.865 237.355C413.568 237.542 413.419 237.801 413.419 238.129C413.419 238.368 413.5 238.569 413.66 238.734C413.824 238.894 414.026 238.974 414.264 238.974C414.671 238.974 415.088 238.777 415.514 238.382ZM419.605 240.007V234.649H418.719V233.564H419.605V233.1C419.605 231.429 420.397 230.594 421.982 230.594C422.494 230.594 423.022 230.668 423.566 230.817V231.991C423.073 231.783 422.631 231.68 422.24 231.68C421.911 231.68 421.679 231.781 421.542 231.985C421.409 232.188 421.342 232.538 421.342 233.035V233.564H422.974V234.649H421.342V240.007H419.605ZM424.593 240.007V234.649H423.707V233.564H424.593V233.1C424.593 231.429 425.386 230.594 426.97 230.594C427.483 230.594 428.011 230.668 428.555 230.817V231.991C428.062 231.783 427.62 231.68 427.228 231.68C426.9 231.68 426.667 231.781 426.53 231.985C426.397 232.188 426.33 232.538 426.33 233.035V233.564H427.962V234.649H426.33V240.007H424.593ZM429.4 240.007V233.564H431.137V240.007H429.4ZM429.4 232.478V231.028H431.137V232.478H429.4ZM438.062 239.866C437.342 240.058 436.675 240.154 436.061 240.154C435.032 240.154 434.218 239.853 433.619 239.25C433.025 238.644 432.727 237.82 432.727 236.78C432.727 235.727 433.034 234.904 433.649 234.309C434.263 233.714 435.112 233.417 436.196 233.417C436.72 233.417 437.324 233.501 438.009 233.669V234.925C437.297 234.694 436.728 234.579 436.301 234.579C435.781 234.579 435.362 234.778 435.045 235.177C434.728 235.576 434.57 236.107 434.57 236.768C434.57 237.445 434.74 237.987 435.08 238.393C435.425 238.8 435.883 239.004 436.454 239.004C436.974 239.004 437.51 238.89 438.062 238.663V239.866Z" fill="#1B1B1B"/>
<rect x="378.723" y="278.518" width="8.19473" height="31.14" rx="2.18526" fill="#2C86D5"/>
<rect x="335.699" y="304.468" width="8.19473" height="5.19" rx="2.18526" fill="#2C86D5"/>
<rect x="350.041" y="299.278" width="8.19473" height="10.38" rx="2.18526" fill="#2C86D5"/>
<rect x="364.381" y="288.898" width="8.19473" height="20.76" rx="2.18526" fill="#2C86D5"/>
<rect x="393.062" y="268.138" width="8.19473" height="41.52" rx="2.18526" fill="#E8E8E8"/>
<path d="M422.986 298.703V295.699C424.659 296.37 426.253 296.706 427.767 296.706C429.428 296.706 430.732 296.216 431.676 295.238C432.632 294.259 433.11 292.91 433.11 291.191C433.11 287.401 430.498 285.506 425.274 285.506C424.682 285.506 424.062 285.546 423.413 285.626V273.334H436.2V276.27H426.367V282.928C429.61 282.928 432.143 283.674 433.964 285.165C435.785 286.656 436.695 288.722 436.695 291.362C436.695 293.821 435.865 295.75 434.203 297.15C432.553 298.538 430.259 299.233 427.323 299.233C426.048 299.233 424.603 299.056 422.986 298.703ZM446.119 298.601V296.074H451.173V276.134L446.119 277.397V274.802L454.553 272.702V296.074H459.607V298.601H446.119ZM465.889 298.601V295.647C466.868 293.36 468.848 290.867 471.83 288.17L473.76 286.445C476.241 284.203 477.481 281.978 477.481 279.77C477.481 278.359 477.055 277.249 476.201 276.441C475.359 275.633 474.198 275.229 472.718 275.229C470.965 275.229 468.9 275.906 466.521 277.26V274.29C468.763 273.231 470.988 272.702 473.196 272.702C475.564 272.702 477.464 273.339 478.898 274.614C480.332 275.889 481.049 277.579 481.049 279.685C481.049 281.198 480.685 282.541 479.957 283.714C479.24 284.886 477.897 286.309 475.928 287.982L474.63 289.092C471.933 291.379 470.374 293.565 469.952 295.647H480.93V298.601H465.889ZM488.374 298.601V273.334H491.737V285.762L501.963 273.334H505.565L495.663 285.387L507.324 298.601H502.783L491.737 285.797V298.601H488.374Z" fill="#1B1B1B"/>
</g>
<defs>
<filter id="filter0_d_3097_35726" x="31.9456" y="33.2412" width="461.091" height="362.754" filterUnits="userSpaceOnUse" color-interpolation-filters="sRGB">
<feFlood flood-opacity="0" result="BackgroundImageFix"/>
<feColorMatrix in="SourceAlpha" type="matrix" values="0 0 0 0 0 0 0 0 0 0 0 0 0 0 0 0 0 0 127 0" result="hardAlpha"/>
<feOffset dy="2.18526"/>
<feGaussianBlur stdDeviation="8.74105"/>
<feColorMatrix type="matrix" values="0 0 0 0 0.0170139 0 0 0 0 0.159833 0 0 0 0 0.291667 0 0 0 0.3 0"/>
<feBlend mode="normal" in2="BackgroundImageFix" result="effect1_dropShadow_3097_35726"/>
<feBlend mode="normal" in="SourceGraphic" in2="effect1_dropShadow_3097_35726" result="shape"/>
</filter>
<filter id="filter1_d_3097_35726" x="201.471" y="9.20316" width="244.749" height="162.802" filterUnits="userSpaceOnUse" color-interpolation-filters="sRGB">
<feFlood flood-opacity="0" result="BackgroundImageFix"/>
<feColorMatrix in="SourceAlpha" type="matrix" values="0 0 0 0 0 0 0 0 0 0 0 0 0 0 0 0 0 0 127 0" result="hardAlpha"/>
<feOffset dy="2.18526"/>
<feGaussianBlur stdDeviation="8.74105"/>
<feColorMatrix type="matrix" values="0 0 0 0 0.0170139 0 0 0 0 0.159833 0 0 0 0 0.291667 0 0 0 0.3 0"/>
<feBlend mode="normal" in2="BackgroundImageFix" result="effect1_dropShadow_3097_35726"/>
<feBlend mode="normal" in="SourceGraphic" in2="effect1_dropShadow_3097_35726" result="shape"/>
</filter>
<filter id="filter2_d_3097_35726" x="300.733" y="198.228" width="244.749" height="162.802" filterUnits="userSpaceOnUse" color-interpolation-filters="sRGB">
<feFlood flood-opacity="0" result="BackgroundImageFix"/>
<feColorMatrix in="SourceAlpha" type="matrix" values="0 0 0 0 0 0 0 0 0 0 0 0 0 0 0 0 0 0 127 0" result="hardAlpha"/>
<feOffset dy="2.18526"/>
<feGaussianBlur stdDeviation="8.74105"/>
<feColorMatrix type="matrix" values="0 0 0 0 0.0170139 0 0 0 0 0.159833 0 0 0 0 0.291667 0 0 0 0.3 0"/>
<feBlend mode="normal" in2="BackgroundImageFix" result="effect1_dropShadow_3097_35726"/>
<feBlend mode="normal" in="SourceGraphic" in2="effect1_dropShadow_3097_35726" result="shape"/>
</filter>
<clipPath id="clip0_3097_35726">
<rect width="10.38" height="10.3888" fill="white" transform="translate(321.322 176.877)"/>
</clipPath>
<clipPath id="clip1_3097_35726">
<rect width="10.38" height="10.3888" fill="white" transform="translate(344.814 176.877)"/>
</clipPath>
<clipPath id="clip2_3097_35726">
<rect width="10.38" height="8.44089" fill="white" transform="translate(368.307 178.176)"/>
</clipPath>
<clipPath id="clip3_3097_35726">
<rect width="10.38" height="10.3888" fill="white" transform="translate(438.781 176.877)"/>
</clipPath>
</defs>
</svg>
